<?xml version="1.0" encoding="UTF-8"?>
<svg id="Layer_2" data-name="Layer 2" xmlns="http://www.w3.org/2000/svg" viewBox="0 0 169.71 126.29">
  <defs>
    <style>
      .cls-1 {
        fill: #e3e2e1;
      }

      .cls-1, .cls-2, .cls-3, .cls-4, .cls-5, .cls-6, .cls-7, .cls-8, .cls-9, .cls-10 {
        stroke-width: 0px;
      }

      .cls-2 {
        fill: #bd695d;
      }

      .cls-3 {
        fill: #fec466;
      }

      .cls-4 {
        fill: #ae4436;
      }

      .cls-5 {
        fill: #8ac249;
      }

      .cls-6 {
        fill: #f9b5ab;
      }

      .cls-7 {
        fill: #f99d1c;
      }

      .cls-8 {
        fill: #8b8c8e;
      }

      .cls-9 {
        fill: #549040;
      }

      .cls-10 {
        fill: #8ac147;
      }
    </style>
  </defs>
  <path class="cls-5" d="m57.97,83.28s-2.16,27.1-4.56,37.31c0,.06-.02.12-.04.18v.02c-.51.37-1.04.71-1.57,1.01-3.6,2.1-7.6,2.86-11.39,2.87-.22,0-.46,0-.68-.02-.6-.01-1.19-.03-1.76-.08h-.03c-.35-.03-.69-.06-1.04-.1h0c-3.67-.43-6.93-1.45-9.14-2.44-.06-.03-.11-.05-.17-.07-.79-.37-1.44-.73-1.91-1.04-.13-.09-.24-.23-.33-.41-.19-.36-.26-.92-.23-1.61,0-.14.01-.28.03-.43.11-1.61.73-4.18,1.63-7.28,1.25-4.22,3.02-9.41,4.87-14.47,3.74-10.28,7.7-20.03,7.7-20.03l18.63,6.59Z"/>
  <path class="cls-9" d="m53.37,120.77v.02c-.51.37-1.04.71-1.57,1.01-3.6,2.1-7.6,2.86-11.39,2.87-.22,0-.46,0-.68-.02-.6-.01-1.19-.03-1.76-.08h-.03c-.35-.03-.69-.06-1.04-.1h0c-3.49-.5-6.66-1.44-9.14-2.44-.06-.03-.11-.05-.17-.07-.79-.37-1.44-.73-1.91-1.04-.13-.09-.24-.23-.33-.41-.19-.36-.26-.92-.23-1.61,4.04-.33,8.89.5,14.06.83,5.33.33,10.21.16,14.2,1.04Z"/>
  <path class="cls-3" d="m85.31,104.23c12.01-1.05,27.07-4.07,45.63-10.54l-.91-33.45-31.53-11.49-31.2-2.43-35.19,39.04h0c14.24,13.58,33.6,20.58,53.2,18.86Z"/>
  <path class="cls-5" d="m149.68,113.79c-6.55,10.49-21.41,8.58-25.67,7.68-.34-.07-.69-.44-1.06-1.06-4.34-7.2-10.79-48.14-10.79-48.14l16.09-11.67s18.43,39.86,21.19,51.94c.1.46.18.88.24,1.26Z"/>
  <path class="cls-9" d="m149.68,113.79c-6.55,10.49-21.41,8.58-25.67,7.68-.34-.07-.69-.44-1.06-1.06,3.21-2.65,8.78-5.16,15.36-6.63,4.01-.9,7.84-1.3,11.13-1.24.1.46.18.88.24,1.26Z"/>
  <path class="cls-2" d="m107.81,32.92c.04,7.51-5.36,13.62-12.07,13.65s-12.17-6.02-12.21-13.53c-.06-10.69,9.74-25.07,12.01-25.09s12.22,14.97,12.27,24.96Z"/>
  <path class="cls-2" d="m144.36,70.5c-7.28,1.83-14.51-1.95-16.14-8.45s2.94-13.26,10.21-15.09c10.37-2.61,26.68,3.46,27.23,5.66s-11.61,15.44-21.3,17.88Z"/>
  <path class="cls-2" d="m140.03,45.57c-5.07,5.53-13.19,6.34-18.13,1.81-4.94-4.53-4.84-12.69.23-18.22,7.22-7.88,24.19-11.77,25.86-10.24s-1.21,19.28-7.96,26.65Z"/>
  <path class="cls-2" d="m126.69,34.07c-3.1,6.84-10.56,10.13-16.67,7.37s-8.55-10.55-5.45-17.39c4.41-9.74,19.32-18.72,21.39-17.78s4.85,18.7.73,27.8Z"/>
  <path class="cls-4" d="m141.4,85.87c-9.02,1.1-17.13-4.55-18.11-12.61s5.54-15.48,14.56-16.58c12.85-1.56,31.52,8.21,31.85,10.94s-16.3,16.79-28.31,18.25Z"/>
  <path class="cls-4" d="m98.11,29.13c1.08,7.43-3.43,14.23-10.06,15.19-6.64.96-12.89-4.28-13.97-11.7-1.54-10.58,6.18-26.18,8.42-26.51s14.17,13.13,15.61,23.02Z"/>
  <path class="cls-4" d="m125.59,35.33c-.7,9.56-8.46,16.78-17.32,16.13-8.86-.65-15.47-8.93-14.77-18.49,1-13.62,15.4-30.91,18.39-30.69s14.63,20.33,13.7,33.05Z"/>
  <path class="cls-2" d="m109.39,52.49c-.4,0-.8-.01-1.2-.04-4.57-.34-8.71-2.57-11.68-6.28-2.95-3.69-4.37-8.41-4.01-13.28.6-8.2,5.66-16.69,8.62-21.02,2.56-3.75,8.12-10.8,10.84-10.59,3.98.29,15.57,21.22,14.62,34.12l-1-.07,1,.07c-.36,4.88-2.46,9.33-5.92,12.55-3.17,2.95-7.14,4.54-11.28,4.54Zm2.4-49.23c-2.14.17-16.3,16.26-17.29,29.77-.32,4.37.95,8.59,3.58,11.89,2.61,3.27,6.26,5.24,10.26,5.53,4,.29,7.9-1.11,10.96-3.97,3.09-2.87,4.96-6.86,5.29-11.23h0c.91-12.33-10.23-31.34-12.8-31.99Z"/>
  <path class="cls-4" d="m147.21,62.04c-7.32,6.19-17.9,5.71-23.64-1.08-5.74-6.78-4.46-17.3,2.86-23.49,10.42-8.82,32.85-10.65,34.79-8.35s-4.27,24.68-14.01,32.92Z"/>
  <path class="cls-2" d="m135.58,67.38c-.28,0-.55,0-.83-.02-4.75-.22-8.99-2.26-11.95-5.76-2.96-3.5-4.27-8.02-3.69-12.74.57-4.69,2.94-9.01,6.67-12.17,10.18-8.61,33.56-11.36,36.2-8.23,1.72,2.03-.73,10.52-2.45,15.22-1.47,4.02-5.55,13.92-11.68,19.11-3.51,2.97-7.84,4.58-12.27,4.58Zm21.11-38.15c-6.95,0-21.6,2.22-29.61,9-3.35,2.83-5.47,6.69-5.98,10.88-.51,4.16.64,8.14,3.24,11.2,2.59,3.07,6.33,4.86,10.51,5.05,4.22.19,8.38-1.26,11.72-4.09h0c9.44-7.99,15.22-29.25,13.88-31.53-.36-.32-1.73-.51-3.75-.51Z"/>
  <path class="cls-4" d="m136.04,42.75c-4.55,7.46-13.84,10.08-20.75,5.87s-8.83-13.68-4.28-21.14c6.48-10.62,25.35-18.66,27.68-17.23,2.34,1.43,3.41,22.57-2.65,32.5Z"/>
  <path class="cls-2" d="m122.49,51.63c-2.67,0-5.33-.69-7.72-2.15-7.37-4.5-9.44-14.6-4.61-22.51,6.35-10.41,25.86-19.52,29.06-17.56,3.12,1.9,3.84,23.78-2.32,33.88h0c-3.26,5.35-8.85,8.35-14.41,8.35Zm15.24-40.6c-3.38,0-19.86,7.13-25.86,16.98-4.25,6.98-2.48,15.84,3.95,19.76,6.43,3.92,15.13,1.44,19.38-5.53,5.73-9.4,4.71-29.49,2.95-31.15-.1-.04-.24-.06-.41-.06Z"/>
  <ellipse class="cls-3" cx="120.73" cy="47.71" rx="8.8" ry="15.72" transform="translate(15.15 123.24) rotate(-57.14)"/>
  <path class="cls-4" d="m113.75,59.17c-2.73,8.67-11.21,13.73-18.96,11.29-7.75-2.43-11.81-11.44-9.09-20.11,3.88-12.35,20.49-25.32,23.11-24.5s8.57,21.77,4.94,33.32Z"/>
  <path class="cls-2" d="m98.79,72.07c-1.45,0-2.89-.22-4.3-.66-4.02-1.26-7.25-4.2-9.08-8.26-1.82-4.02-2.05-8.68-.66-13.1,3.8-12.09,20.77-26.28,24.36-25.15,2.36.74,4.56,8.77,5.49,13.4.79,3.94,2.38,13.9.1,21.17h0c-1.39,4.43-4.25,8.11-8.04,10.37-2.49,1.48-5.19,2.24-7.87,2.24Zm9.62-45.29c-2.42,0-18.02,12-21.75,23.87-1.24,3.96-1.04,8.11.58,11.68,1.6,3.53,4.39,6.08,7.86,7.17,3.47,1.09,7.22.6,10.55-1.39,3.37-2.01,5.91-5.29,7.15-9.25h0c3.53-11.22-2.19-30.82-4.33-32.08-.02,0-.04,0-.06,0Z"/>
  <path class="cls-4" d="m141.63,80.31c-5.89,6.92-15.68,8.27-21.86,3.01-6.18-5.26-6.42-15.14-.53-22.06,8.39-9.86,28.74-15.33,30.83-13.55s-.6,23.39-8.44,32.61Z"/>
  <path class="cls-2" d="m128.7,87.51c-3.47,0-6.85-1.12-9.58-3.44-6.59-5.61-6.88-16.14-.65-23.47,5.05-5.94,13.57-9.71,18.19-11.43,4.02-1.49,12.12-3.88,14.05-2.24,2.79,2.37-.37,24.66-8.33,34.02h0c-3.66,4.3-8.77,6.56-13.69,6.56Zm19.78-39.23c-4.38,0-21.07,4.9-28.48,13.61-5.52,6.49-5.33,15.75.42,20.65,5.75,4.9,14.93,3.6,20.45-2.89,7.62-8.96,10-29.23,8.52-31.23-.17-.09-.48-.14-.91-.14Z"/>
  <path class="cls-4" d="m122.2,72.02c-2.91,6.92-10.28,10.42-16.46,7.82-6.18-2.6-8.83-10.31-5.92-17.23,4.14-9.85,18.8-19.24,20.89-18.36s5.36,18.56,1.49,27.77Z"/>
  <path class="cls-7" d="m93.69,100.48c-26.59,0-35.91-10.68-36.34-11.19-.36-.42-.3-1.05.12-1.41.42-.36,1.05-.3,1.41.12.14.16,11.73,13.23,45.53,9.93.54-.06,1.04.35,1.09.9.05.55-.35,1.04-.9,1.09-3.92.38-7.56.55-10.92.55Z"/>
  <path class="cls-7" d="m63.92,100.36c-.53,0-.97-.42-1-.95-.03-.55.4-1.02.95-1.04.19,0,19.23-.94,25.63-6.63.41-.37,1.04-.33,1.41.08.37.41.33,1.04-.08,1.41-6.93,6.16-26.06,7.09-26.87,7.13-.01,0-.03,0-.05,0Z"/>
  <path class="cls-2" d="m110.01,81.7c-1.59,0-3.17-.31-4.67-.94-6.68-2.81-9.57-11.13-6.46-18.54,4.14-9.83,19.14-20.19,22.2-18.89,2.41,1.02,3.47,10.5,3.59,11.58.35,3.32.89,11.67-1.56,17.5h0c-1.5,3.57-4.17,6.41-7.5,7.99-1.82.87-3.73,1.3-5.61,1.3Zm10.29-36.52c-2.25,0-15.67,8.55-19.57,17.81-2.69,6.4-.27,13.54,5.39,15.92,2.72,1.15,5.79,1.03,8.64-.32,2.89-1.37,5.2-3.84,6.51-6.96h0c3.73-8.87.55-24.82-.97-26.45h0Z"/>
  <path class="cls-5" d="m107.52,119.07v.05c-7.29,10-21.99,7.02-26.16,5.81-.38-.11-.74-.59-1.11-1.4-3.77-8.13-7.18-48.53-7.18-48.53,8.76-5.44,20.31-1.39,23.75,8.34.4,1.14.81,2.28,1.21,3.45,2.47,7.09,5.01,14.71,6.85,20.98,1.44,4.89,2.44,8.96,2.64,11.31Z"/>
  <path class="cls-5" d="m84.85,80.41s22.84,14.51,47.84,13.23l5.64-7.17-45.84-16.52-7.63,10.45Z"/>
  <path class="cls-9" d="m107.51,119.07v.05c-7.29,10-21.99,7.02-26.16,5.81-.38-.11-.74-.59-1.11-1.4,3.41-2.52,8.4-4.45,14.1-5.21,4.87-.64,9.48-.31,13.17.75Z"/>
  <path class="cls-9" d="m142.12,89.85c-.09,0-.18,0-.28-.01-45.96-3.61-61.42-25.7-62.06-26.64-1.08-1.6-.67-3.78.94-4.86,1.6-1.08,3.76-.67,4.85.92.22.31,14.63,20.29,56.82,23.6,1.93.15,3.37,1.84,3.21,3.76-.14,1.83-1.68,3.23-3.49,3.23Z"/>
  <g>
    <path class="cls-5" d="m95.25,32.02C89.27,12.27,70.76.21,50.95,0c-.31,0-1.86.04-2.17.06C29.02,1.35,8.82,14.46,3.92,34.5c-2.2,8.98-6.75,25.25-1.44,39.11,5.7,14.88,26.93,20.6,48.58,19.94h0c.05,0,.11,0,.16,0,.05,0,.11,0,.16,0h0c21.65-.52,42.55-7.38,47.43-22.55,4.55-14.12-.88-30.12-3.56-38.97Z"/>
    <ellipse class="cls-4" cx="72.05" cy="50.61" rx="5.28" ry="7.03" transform="translate(-1.35 1.98) rotate(-1.56)"/>
    <g>
      <path class="cls-10" d="m36.97,59.98s3.98,7.29,13.53,7.03c10.11-.27,13.13-7.76,13.13-7.76"/>
      <path class="cls-9" d="m50,68.02c-9.67,0-13.73-7.25-13.9-7.56-.26-.48-.09-1.09.4-1.36.48-.26,1.09-.09,1.36.4.16.29,3.88,6.76,12.62,6.51,9.29-.25,12.11-6.85,12.23-7.13.21-.51.79-.76,1.3-.55.51.21.76.79.55,1.3-.13.33-3.39,8.09-14.03,8.38-.18,0-.36,0-.53,0Z"/>
    </g>
    <g>
      <ellipse class="cls-6" cx="23.94" cy="64.35" rx="6" ry="3.6" transform="translate(-1.74 .67) rotate(-1.56)"/>
      <ellipse class="cls-6" cx="76.88" cy="62.91" rx="6" ry="3.6" transform="translate(-1.68 2.11) rotate(-1.56)"/>
    </g>
  </g>
  <path class="cls-9" d="m31.26,55.16c-.23,0-.47-.08-.66-.24-5.49-4.76-10.25-1.15-10.46-1-.44.34-1.06.26-1.4-.17-.34-.44-.26-1.06.17-1.4.06-.05,6.28-4.77,13,1.06.42.36.46.99.1,1.41-.2.23-.48.34-.75.34Z"/>
  <path class="cls-9" d="m31.26,55.2c-.37,0-.73-.21-.9-.57-3.1-6.52-8.94-5.16-9.19-5.1-.53.13-1.08-.19-1.21-.73-.13-.53.19-1.08.72-1.21.07-.02,7.66-1.85,11.48,6.17.24.5.03,1.1-.47,1.33-.14.07-.29.1-.43.1Z"/>
  <g>
    <g>
      <path class="cls-1" d="m99.04,41.02c-.41-1.53-4.19-2.56-4.19-2.56,0,0-3.68-5.11-10.23-4.91-6.55.2-14.83-.31-29.56,5.93-1.54.47-3.44.64-4.77.69-1.33-.06-3.23-.22-4.77-.69-14.73-6.24-23.01-5.73-29.56-5.93-6.55-.2-10.23,4.91-10.23,4.91,0,0-3.78,1.02-4.19,2.56-.41,1.53,3.78,3.17,3.78,3.17,0,0,2.86,7.88,5.73,12.17,2.86,4.3,6.14,2.45,6.14,2.45,0,0,4.81,1.84,14.93,2.45,10.13.61,12.48-7.16,13.91-10.74.87-2.16,2.83-2.84,4.26-3.04,1.43.2,3.4.88,4.26,3.04,1.43,3.58,3.78,11.35,13.91,10.74,10.13-.61,14.93-2.45,14.93-2.45,0,0,3.27,1.84,6.14-2.45,2.86-4.3,5.73-12.17,5.73-12.17,0,0,4.19-1.64,3.78-3.17Z"/>
      <path class="cls-7" d="m43.3,46.82c-.14,2.71-.79,5.4-2.11,7.77-1.24,2.21-3.16,4.43-5.87,4.43-2.56,0-6.71-.16-10.99-1.03l-1.95-.44h-.01c-.84-.21-1.66-.45-2.48-.74l-3.17-1.3c-3.51-1.75-6.09-4.94-7.26-8.69-1.2-3.84-1.17-7,.08-8.05,1.74-1.47,3.73-3.73,15.16-2.61.16.02.32.03.49.05,1.41.15,2.73.31,3.96.48.77.11,1.49.22,2.19.34h.01c.95.16,1.84.33,2.67.5,5.8,1.22,8.61,2.79,8.97,4.3.33,1.39.41,3.09.31,4.99Z"/>
      <path class="cls-7" d="m91.11,46.82c-1.2,3.82-3.85,7.06-7.45,8.79-3.01,1.45-6.45,2.3-9.66,2.77-.84.14-1.66.24-2.45.32-1,.1-1.95.18-2.84.22-1.33.08-2.5.1-3.46.1-.13,0-.27,0-.4-.02-2.5-.2-4.29-2.31-5.47-4.41-1.33-2.37-1.97-5.06-2.11-7.77-.1-1.9-.02-3.6.3-4.99.51-2.09,5.7-4.29,17-5.53.26-.03.53-.06.8-.09,1.47-.15,2.79-.25,3.98-.3.81-.04,1.55-.05,2.24-.05,1.06.01,1.98.06,2.79.15,4.19.43,5.48,1.78,6.64,2.76,1.25,1.05,1.29,4.21.09,8.05Z"/>
      <path class="cls-3" d="m29.15,36.69l-9.26,20.12-3.17-1.3,7.98-19.35c.16.02.32.03.49.05,1.41.15,2.73.31,3.96.48Z"/>
      <path class="cls-3" d="m34.02,37.53l-9.69,20.46-1.95-.44h-.01l-.09-.05,9.06-20.47h.01c.95.16,1.84.33,2.67.5Z"/>
      <path class="cls-3" d="m68.71,58.92l10.64-23.01c-1.19.05-2.51.15-3.98.3-.27.03-.54.06-.8.09l-9.72,22.7,3.86-.08Z"/>
      <path class="cls-3" d="m84.38,36.01l-10.38,22.37c-.84.14-1.66.24-2.45.32l10.04-22.84c1.06.01,1.98.06,2.79.15Z"/>
    </g>
    <ellipse class="cls-8" cx="4.5" cy="41.05" rx="1.52" ry=".67"/>
    <ellipse class="cls-8" cx="95.98" cy="41.05" rx="1.52" ry=".67"/>
  </g>
</svg>