<?xml version="1.0" encoding="UTF-8"?>
<svg id="Layer_2" data-name="Layer 2" xmlns="http://www.w3.org/2000/svg" viewBox="0 0 134.53 152.11">
  <defs>
    <style>
      .cls-1 {
        fill: #e3e2e1;
      }

      .cls-1, .cls-2, .cls-3, .cls-4, .cls-5, .cls-6, .cls-7, .cls-8, .cls-9, .cls-10 {
        stroke-width: 0px;
      }

      .cls-2 {
        fill: #fec466;
      }

      .cls-3 {
        fill: #ae4436;
      }

      .cls-4 {
        fill: #8ac249;
      }

      .cls-5 {
        fill: #ad4436;
      }

      .cls-6 {
        fill: #f9b5ab;
      }

      .cls-7 {
        fill: #f99d1c;
      }

      .cls-8 {
        fill: #549040;
      }

      .cls-9 {
        fill: #bd6a5f;
      }

      .cls-10 {
        fill: #8ac147;
      }
    </style>
  </defs>
  <g>
    <path class="cls-9" d="m7.99,119.29s-4.83-8.48-3.75-10.92,15.48-3.46,18.67,0,1.64,13.33-4.63,14.49-10.29-3.57-10.29-3.57Z"/>
    <path class="cls-9" d="m15.17,97.63s-2.18-9.51-.45-11.54,15.82,1.15,17.87,5.38-2.27,13.24-8.6,12.55c-6.33-.69-8.82-6.38-8.82-6.38Z"/>
    <path class="cls-9" d="m31.04,84.73s-2.18-9.51-.45-11.54,15.82,1.15,17.87,5.38-2.27,13.24-8.6,12.55c-6.33-.69-8.82-6.38-8.82-6.38Z"/>
    <path class="cls-9" d="m125.65,119.29s4.83-8.48,3.75-10.92-15.48-3.46-18.67,0c-3.19,3.46-1.64,13.33,4.63,14.49s10.29-3.57,10.29-3.57Z"/>
    <path class="cls-9" d="m118.48,97.63s2.18-9.51.45-11.54-15.82,1.15-17.87,5.38,2.27,13.24,8.6,12.55,8.82-6.38,8.82-6.38Z"/>
    <path class="cls-9" d="m102.6,84.73s2.18-9.51.45-11.54c-1.73-2.03-15.82,1.15-17.87,5.38s2.27,13.24,8.6,12.55,8.82-6.38,8.82-6.38Z"/>
    <path class="cls-3" d="m.23,119.8c2.77,4.75,18.14,25.18,39.04,17.31l9.75-16.24s-23.64-13.35-47.9-3.58c-.99.4-1.43,1.58-.89,2.51Z"/>
    <path class="cls-3" d="m36.61,64.46c-.79,5.44-1.46,31,19.8,37.84l17.73-6.65s0-24.72-35.28-32.6c-1.05-.23-2.1.35-2.26,1.41Z"/>
    <path class="cls-3" d="m97.92,64.46c.79,5.44,1.46,31-19.8,37.84l-17.73-6.65s0-24.72,35.28-32.6c1.05-.23,2.1.35,2.26,1.41Z"/>
    <path class="cls-3" d="m7.24,95.25c2.12,7.36,10.86,31.37,33.86,27.11,0,0,12.88-6.47,7.07-16.15-5.66-9.43-12.96-14.77-39.34-13.19-1.12.07-1.9,1.15-1.59,2.23Z"/>
    <path class="cls-3" d="m21.32,74.81c-.83-.27-1.68.33-1.69,1.21-.05,7.09,1.04,33.82,20.18,36.72,14.66,2.22,19.54-19.65,10.53-25.88-8.46-5.85-20.43-9.23-29.02-12.04Z"/>
    <path class="cls-9" d="m35.78,123.87c-19.7,0-27.48-21.32-29.5-28.34-.23-.81-.09-1.66.4-2.34.49-.69,1.25-1.11,2.1-1.16,26.01-1.56,34.21,3.61,40.25,13.68,1.63,2.71,2.05,5.44,1.27,8.14-1.69,5.82-8.46,9.28-8.75,9.42l-.27.09c-1.93.36-3.77.52-5.5.52Zm-18.29-30.13c-2.61,0-5.47.09-8.59.28-.24.01-.45.13-.58.32-.08.11-.19.34-.11.64,1.92,6.65,9.28,26.88,27.67,26.88,1.55,0,3.19-.14,4.9-.45.87-.47,6.28-3.54,7.61-8.14.62-2.13.26-4.33-1.07-6.54-5.05-8.41-11.45-12.99-29.82-12.99Z"/>
    <path class="cls-3" d="m134.3,119.8c-2.77,4.75-18.14,25.18-39.04,17.31l-9.75-16.24s23.64-13.35,47.9-3.58c.99.4,1.43,1.58.89,2.51Z"/>
    <path class="cls-3" d="m127.29,95.25c-2.12,7.36-10.86,31.37-33.86,27.11,0,0-12.88-6.47-7.07-16.15s12.96-14.77,39.34-13.19c1.12.07,1.9,1.15,1.59,2.23Z"/>
    <path class="cls-3" d="m113.21,74.81c.83-.27,1.68.33,1.69,1.21.05,7.09-1.04,33.82-20.18,36.72-14.66,2.22-19.57-19.91-10.56-26.14,8.46-5.85,20.46-8.97,29.05-11.78Z"/>
    <path class="cls-9" d="m98.75,123.87c-1.74,0-3.57-.17-5.5-.52l-.27-.09c-.29-.14-7.06-3.6-8.75-9.42-.78-2.69-.35-5.43,1.27-8.14,6.05-10.07,14.25-15.24,40.25-13.68.84.05,1.61.47,2.1,1.16.48.69.63,1.54.4,2.34l-.96-.28.96.28c-2.02,7.02-9.8,28.34-29.5,28.34Zm-4.99-2.46c22.02,3.96,30.5-19.22,32.57-26.43.09-.3-.03-.53-.11-.64-.13-.19-.35-.31-.58-.32-25.12-1.5-32.65,3.1-38.42,12.71-1.33,2.21-1.69,4.41-1.07,6.54,1.33,4.6,6.73,7.67,7.61,8.14Z"/>
  </g>
  <path class="cls-4" d="m36.13,150.8s28.27-13.53,62.67,0c0,0,.41-63.99-5.01-76.07-5.42-12.08-38.86-8.23-38.86-8.23l-17.22,29.33-1.57,54.96Z"/>
  <path class="cls-2" d="m91.56,109.84c0,18.32-10.88,29.91-24.29,29.91s-24.29-11.59-24.29-29.91,10.88-46.35,24.29-46.35,24.29,28.04,24.29,46.35Z"/>
  <path class="cls-7" d="m66.02,101.15c-4.31,0-7.81-.81-10.18-1.57-.52-.17-.81-.74-.64-1.26.17-.52.74-.81,1.26-.64,4.77,1.55,14.5,3.26,26.06-2.73.49-.25,1.09-.06,1.35.43.25.49.06,1.09-.43,1.35-6.51,3.38-12.49,4.43-17.42,4.43Z"/>
  <path class="cls-7" d="m67.17,132.98c-8.25,0-14.38-4.17-14.48-4.24-.45-.32-.56-.94-.25-1.39.31-.45.94-.57,1.39-.25.55.38,13.6,9.2,26.93-.83.44-.33,1.07-.24,1.4.2.33.44.24,1.07-.2,1.4-5.13,3.86-10.28,5.11-14.8,5.11Z"/>
  <path class="cls-7" d="m65.98,114.31c-8.79,0-14.48-3.44-14.85-3.66-.47-.29-.61-.91-.32-1.38.29-.47.9-.61,1.38-.32.13.08,13.25,7.95,30.32-.89.49-.25,1.09-.06,1.35.43.25.49.06,1.09-.43,1.35-6.53,3.39-12.49,4.48-17.45,4.48Z"/>
  <path class="cls-7" d="m67.3,132.38c-.55,0-1-.45-1-1v-44.67c-.01-.55.44-1,.99-1s1,.45,1,1v44.67c.01.55-.44,1-.99,1Z"/>
  <g>
    <path class="cls-4" d="m112.95,33.22C107.5,13.32,89.33.76,69.54.01c-.31-.01-1.86-.01-2.17,0C47.57.76,27.03,13.32,21.58,33.22c-2.44,8.92-7.43,25.06-2.5,39.05,5.29,15.03,26.36,21.33,48.02,21.25h0c.05,0,.11,0,.16,0,.05,0,.11,0,.16,0h0c21.66.07,42.73-6.23,48.02-21.26,4.93-13.99-.06-30.14-2.5-39.05Z"/>
    <g>
      <ellipse class="cls-3" cx="45.28" cy="51.18" rx="5.28" ry="7.03"/>
      <ellipse class="cls-3" cx="89.25" cy="51.18" rx="5.28" ry="7.03"/>
    </g>
    <g>
      <path class="cls-10" d="m53.93,59.59s3.78,7.4,13.33,7.4c10.11,0,13.33-7.4,13.33-7.4"/>
      <path class="cls-8" d="m67.27,67.99c-10.05,0-14.06-7.62-14.22-7.94-.25-.49-.06-1.09.44-1.35.49-.25,1.09-.06,1.34.43.15.29,3.66,6.85,12.44,6.85,9.29,0,12.29-6.52,12.42-6.8.22-.5.81-.74,1.32-.51.5.22.73.81.52,1.31-.14.33-3.61,8-14.25,8Z"/>
    </g>
    <g>
      <ellipse class="cls-6" cx="40.78" cy="63.6" rx="6" ry="3.6"/>
      <ellipse class="cls-6" cx="93.75" cy="63.6" rx="6" ry="3.6"/>
    </g>
  </g>
  <path class="cls-4" d="m37.37,120.59c-.71-.38-1.43-.8-2.15-1.25-6.6-4.14-6.87-10.94-4.57-17.9,3.99-12.06,15.72-24.59,15.72-24.59,0,0,10.53-6.07,6.63,2.4s-5.59,18.76-4.86,22.25c.73,3.48,13.99,2.03,16.87,11.04,2.76,8.65-10.6,17.36-27.63,8.04Z"/>
  <path class="cls-1" d="m57.66,128.72s54.52,7.03,59.72,5.36c5.2-1.68,12.7-43.69,9.98-48.1-2.54-4.12-46.03-9.53-50.36-4.96s-8.99,41.02-8.99,41.02c0,0-12.76-.81-13.01,3.67-.33,1.22.9,2.79,2.66,3.01Z"/>
  <g>
    <path class="cls-9" d="m101.68,106.17l2.78.38-.3,2.22-9.07-1.23.3-2.22,2.78.38c-.57-1.4-1.39-2.76-2.43-3.87.15-.5.34-.98.57-1.45.12-.25.25-.5.4-.75.33.31.65.63.95.97.05.06.1.11.15.17.1.12.2.23.29.35.08.1.16.21.25.32.25.32.48.65.69.99.16.25.31.5.45.75.23.42.44.85.63,1.3.2-.24.4-.48.61-.71.11-.12.23-.25.35-.37.19-.19.38-.38.58-.56.37-.34.76-.65,1.16-.95.2-.15.41-.29.61-.43.21-.14.42-.27.64-.4.15-.09.3-.17.45-.25.06-.03.13-.07.19-.1,0,0,0,0,.02,0,.07.27.14.55.19.83.09.51.15,1.03.16,1.54-1.31.79-2.47,1.89-3.4,3.1Z"/>
    <path class="cls-5" d="m115,100.84c0-.12,0-.23,0-.36v-.91s-.9-.18-.9-.18c-.07-.01-.14-.03-.22-.04-.04,0-.08-.02-.12-.02-.04,0-.08-.01-.12-.02-.15-.02-.28-.04-.41-.06-.76-.1-1.53-.15-2.29-.13-.17,0-.34.01-.51.02,0,0,0,0-.01,0-.25.02-.5.04-.75.07-.08,0-.17.02-.25.03-.08.01-.17.02-.25.04-.09.01-.19.03-.28.04-.48.08-.95.19-1.42.32-.1.03-.2.06-.3.09-.13.04-.25.08-.38.12-.42.14-.83.3-1.24.48h0c-.08.03-.16.07-.23.1-.21.09-.41.19-.61.3.08.27.14.55.19.83.09.51.14,1.03.16,1.54.45-.27.91-.51,1.39-.72.26-.11.52-.22.78-.31,1.75-.62,3.62-.83,5.47-.61h0c0,.08-.01.15-.02.23,0,.04,0,.08-.01.12-.01.11-.03.22-.04.34-.67,4.91-4.2,8.87-8.99,10.1-.08.02-.16.04-.24.06-.02,0-.04,0-.05.01-.02,0-.05,0-.07.01-.04,0-.08.02-.11.03-.04,0-.08.02-.12.02-.04,0-.08.02-.12.02-.03,0-.06.01-.1.02-.05,0-.1.02-.14.03-.02,0-.04,0-.07,0,0,0-.02,0-.03,0-.05,0-.1.02-.15.03-.02,0-.03,0-.05,0-.07,0-.13.02-.19.03-.01,0-.02,0-.04,0-.07,0-.14.02-.21.02,0,0,0,0,0,0-.56.06-1.14.08-1.71.06h0c-.08,0-.16,0-.24-.01-.02,0-.03,0-.05,0-.06,0-.13,0-.19-.01l-.53-.05c-.13-.01-.26-.03-.4-.05-.18-.03-.36-.06-.53-.09-.94-.19-1.84-.48-2.7-.87-.22-.1-.44-.21-.66-.33-.1-.05-.2-.11-.3-.16-4.29-2.46-6.64-7.22-5.97-12.13.03-.23.07-.46.11-.68,1.86.29,3.61.99,5.13,2.07.23.16.45.33.67.51.41.33.79.69,1.15,1.07.15-.5.34-.98.57-1.45.12-.25.25-.5.4-.74,0,0,0,0,0,0-.11-.1-.22-.2-.34-.3h0c-.11-.1-.23-.2-.34-.29,0,0-.01,0-.01-.01-.34-.28-.7-.54-1.07-.79-.11-.07-.22-.15-.33-.22-.12-.08-.24-.15-.36-.22-.1-.06-.2-.12-.3-.17-.14-.08-.28-.15-.42-.22-.09-.05-.18-.09-.27-.14-.05-.02-.09-.04-.14-.07-.11-.05-.22-.11-.34-.15-.1-.05-.2-.09-.29-.13-.03-.01-.06-.03-.09-.04-.11-.05-.22-.09-.34-.13,0,0,0,0,0,0-.13-.05-.25-.09-.38-.14-.01,0-.03-.01-.04-.02-.11-.04-.22-.07-.32-.11-.15-.05-.3-.09-.45-.13-.11-.03-.23-.06-.34-.09,0,0-.01,0-.02,0-.13-.03-.26-.07-.4-.1-.01,0-.03,0-.04,0-.12-.03-.24-.05-.36-.07-.13-.03-.26-.05-.4-.07h-.03c-.13-.02-.25-.04-.38-.06h0c-.1-.02-.2-.03-.3-.04-.04,0-.07,0-.11-.01-.11-.01-.23-.02-.35-.03-.02,0-.04,0-.06,0h-.1s-.86-.07-.86-.07l-.25.88c-.04.12-.06.24-.09.35-.13.51-.23,1.03-.3,1.56-.39,2.88.09,5.78,1.39,8.37,1.27,2.53,3.24,4.61,5.68,6.01,1.35.77,2.81,1.32,4.34,1.62.21.04.42.08.63.11.08.01.15.02.23.03.09.01.17.02.26.03.2.02.4.04.61.06.39.03.78.04,1.17.04,1.16,0,2.32-.15,3.45-.44,2.14-.55,4.1-1.57,5.76-2.99.46-.4.91-.83,1.32-1.29,1.95-2.15,3.18-4.81,3.57-7.69.07-.52.12-1.05.13-1.58Zm-17.39-2.49c1.01-1.21,2.3-2.17,3.74-2.79,1.23.98,2.21,2.24,2.86,3.67.03.06.06.13.09.2.67-.32,1.37-.59,2.09-.81-.04-.1-.09-.21-.13-.31-.9-1.98-2.31-3.68-4.08-4.93l-.48-.34-.55.2c-2.05.73-3.87,2-5.26,3.68-.07.09-.14.17-.21.26.63.4,1.23.85,1.79,1.34.04-.06.09-.11.14-.17Z"/>
    <path class="cls-5" d="m106.24,98.32c-.9-1.98-2.31-3.68-4.08-4.93l-.48-.34-.55.2c-2.05.73-3.87,2-5.26,3.68-.07.09-.14.17-.21.26.63.4,1.23.85,1.79,1.34.04-.06.09-.11.14-.17,1.01-1.21,2.3-2.17,3.74-2.79,1.23.98,2.21,2.24,2.86,3.67.03.06.06.13.09.19.67-.32,1.37-.59,2.09-.81-.04-.1-.09-.21-.13-.31Z"/>
  </g>
  <ellipse class="cls-8" cx="98.6" cy="134.95" rx="12.67" ry="17.17"/>
  <ellipse class="cls-8" cx="35.93" cy="133.91" rx="12.67" ry="17.17"/>
</svg>