<?xml version="1.0" encoding="UTF-8"?>
<svg id="Layer_2" data-name="Layer 2" xmlns="http://www.w3.org/2000/svg" viewBox="0 0 157.95 152.01">
  <defs>
    <style>
      .cls-1 {
        fill: #e3e2e1;
      }

      .cls-1, .cls-2, .cls-3, .cls-4, .cls-5, .cls-6, .cls-7, .cls-8, .cls-9, .cls-10, .cls-11, .cls-12 {
        stroke-width: 0px;
      }

      .cls-2 {
        fill: #bd695d;
      }

      .cls-3 {
        fill: #fec466;
      }

      .cls-4 {
        fill: #ae4436;
      }

      .cls-5 {
        fill: #8ac249;
      }

      .cls-6 {
        fill: #ad4436;
      }

      .cls-7 {
        fill: #f9b5ab;
      }

      .cls-8 {
        fill: #f99d1c;
      }

      .cls-9 {
        fill: #8b8c8e;
      }

      .cls-10 {
        fill: #549040;
      }

      .cls-11 {
        fill: #bd6a5f;
      }

      .cls-12 {
        fill: #8ac147;
      }
    </style>
  </defs>
  <g>
    <g>
      <path class="cls-2" d="m106.66,78.28c-2.77,6.79-9.93,10.28-15.99,7.81-6.06-2.47-8.73-9.98-5.96-16.77,3.94-9.67,18.16-18.98,20.21-18.15s5.43,18.07,1.75,27.1Z"/>
      <path class="cls-2" d="m125.6,125.85c-7.25-1.06-12.36-7.18-11.41-13.66.95-6.48,7.6-10.87,14.85-9.8,10.33,1.52,22.78,13.09,22.46,15.28s-16.25,9.6-25.9,8.18Z"/>
      <path class="cls-2" d="m131,101.73c-6.64,3.1-14.27.8-17.04-5.14-2.77-5.93.37-13.26,7.02-16.35,9.46-4.41,26.22-1.59,27.16.42.94,2.01-8.29,16.95-17.14,21.07Z"/>
      <path class="cls-2" d="m123.27,86.37c-5.35,5.01-13.31,5.2-17.79.42-4.48-4.78-3.77-12.71,1.58-17.72,7.62-7.14,24.43-9.67,25.94-8.06,1.51,1.61-2.61,18.69-9.73,25.36Z"/>
      <path class="cls-4" d="m117.95,139.54c-8.55-2.38-13.76-10.5-11.63-18.14,2.13-7.64,10.78-11.9,19.33-9.52,12.18,3.39,25.37,19.19,24.66,21.77s-20.97,9.06-32.36,5.89Z"/>
      <path class="cls-4" d="m71.9,82.97c.6,8.85,7.49,15.6,15.4,15.07,7.91-.53,13.84-8.14,13.24-17-.85-12.61-13.64-28.74-16.31-28.56-2.67.18-13.13,18.7-12.33,30.49Z"/>
      <g>
        <path class="cls-4" d="m122.44,87.88c-4.21,8.36-13.9,11.98-21.65,8.08-7.75-3.9-10.63-13.84-6.42-22.2,5.99-11.91,25.44-22.14,28.06-20.82s5.61,23.81.01,34.94Z"/>
        <path class="cls-2" d="m107.41,98.53c-2.4,0-4.81-.54-7.07-1.67-8.23-4.14-11.31-14.7-6.86-23.54,5.86-11.65,25.84-23.06,29.4-21.26,2.33,1.17,3.38,9.75,3.64,14.63.22,4.17.35,14.64-3.18,21.65h0c-3.23,6.42-9.55,10.19-15.93,10.19Zm14.3-44.74c-2.94,0-20.73,9.06-26.45,20.42-3.95,7.86-1.27,17.21,5.98,20.86,7.25,3.65,16.36.22,20.31-7.64h0c5.39-10.72,2.47-32.05.4-33.61-.06-.02-.15-.03-.24-.03Z"/>
      </g>
      <g>
        <path class="cls-4" d="m131.97,120.06c-8.92,2.85-18.28-1.54-20.93-9.8s2.44-17.28,11.36-20.13c12.7-4.06,33.62,2.67,34.51,5.46s-13.07,20.67-24.94,24.47Z"/>
        <path class="cls-2" d="m126.43,121.93c-2.66,0-5.29-.57-7.7-1.7-4.21-1.97-7.28-5.41-8.64-9.67-1.36-4.27-.86-8.84,1.42-12.89,2.27-4.02,6.03-7.04,10.58-8.49,12.42-3.97,34.55,2.3,35.77,6.11.79,2.48-4.59,9.24-7.9,12.84-2.83,3.08-10.21,10.5-17.69,12.89h0c-1.92.62-3.9.92-5.85.92Zm5.23-32.08c-3.15,0-6.22.35-8.95,1.23-4.07,1.3-7.43,3.99-9.45,7.57-2.01,3.56-2.46,7.57-1.26,11.3s3.89,6.74,7.58,8.47c3.72,1.74,8.02,1.99,12.09.69,11.43-3.66,24.61-20.68,24.28-23.24-.74-1.46-13-6.01-24.29-6.01Z"/>
      </g>
      <g>
        <path class="cls-4" d="m130.76,100.52c-6.89,5.03-16.26,3.93-20.92-2.46-4.66-6.39-2.86-15.64,4.03-20.67,9.81-7.16,29.84-7.36,31.42-5.21,1.58,2.16-5.36,21.64-14.53,28.34Z"/>
        <path class="cls-2" d="m121.26,104.68c-.64,0-1.28-.04-1.91-.11-4.23-.5-7.89-2.6-10.31-5.91-2.42-3.32-3.31-7.44-2.49-11.63.81-4.15,3.2-7.86,6.74-10.44,5.93-4.33,14.63-5.8,19.28-6.29,4.04-.42,12.07-.7,13.53,1.3,2.11,2.89-5.42,22.92-14.75,29.73h0c-3,2.19-6.52,3.35-10.09,3.35Zm17.36-32.72c-6.75,0-17.65,1.49-24.16,6.24-3.13,2.28-5.24,5.55-5.96,9.21-.71,3.63.05,7.2,2.14,10.06,2.09,2.86,5.26,4.68,8.93,5.11,3.7.44,7.46-.58,10.59-2.87h0c8.63-6.3,15.23-24.81,14.29-26.98-.5-.46-2.73-.78-5.84-.78Z"/>
      </g>
      <g>
        <path class="cls-4" d="m102.21,104.19c-5.7,6.8-15.24,8.2-21.32,3.11-6.08-5.09-6.39-14.73-.69-21.54,8.12-9.69,27.95-15.19,30-13.47,2.05,1.72-.4,22.84-7.99,31.9Z"/>
        <path class="cls-2" d="m89.5,111.36c-3.45,0-6.67-1.14-9.25-3.3-6.49-5.44-6.86-15.73-.82-22.95,8.05-9.62,28.43-16.1,31.41-13.6,2.33,1.95.06,13.66-.04,14.16-.76,3.86-3.04,13.44-7.83,19.15-2.91,3.48-6.87,5.74-11.14,6.36-.79.11-1.57.17-2.34.17Zm19.21-38.47c-4.16,0-20.57,4.95-27.74,13.51-5.33,6.37-5.08,15.4.57,20.13,2.72,2.28,6.27,3.23,10.02,2.68,3.78-.55,7.3-2.56,9.9-5.67,7.33-8.75,9.52-28.58,8.08-30.53-.16-.08-.44-.12-.81-.12Z"/>
      </g>
      <g>
        <path class="cls-4" d="m117.44,133.64c-7.9,4.05-17.23,1.6-20.85-5.45-3.61-7.06-.14-16.06,7.76-20.1,11.25-5.76,31.66-3.1,32.88-.71s-9.28,20.88-19.79,26.27Z"/>
        <path class="cls-2" d="m109.49,136.47c-5.8,0-11.18-2.86-13.79-7.94-1.88-3.67-2.05-7.93-.48-12,1.55-4.03,4.63-7.38,8.67-9.45,11.17-5.72,32.45-3.75,34.23-.28,1.39,2.71-5.27,12.6-5.56,13.02-2.2,3.26-8.04,11.19-14.67,14.59-2.72,1.39-5.61,2.06-8.41,2.06Zm12.73-30.94c-5.91,0-12.52.83-17.41,3.33-3.6,1.84-6.34,4.83-7.72,8.39-1.36,3.53-1.22,7.21.39,10.36,3.36,6.56,12.11,8.8,19.5,5.02h0c10.16-5.2,19.91-22.61,19.34-24.97-.76-.91-6.92-2.14-14.1-2.14Z"/>
      </g>
      <path class="cls-4" d="m103.82,119.3c-5.68,4.63-13.64,4.26-17.78-.82s-2.88-12.94,2.81-17.57c8.1-6.59,25.04-7.95,26.44-6.23s-3.9,18.46-11.47,24.62Z"/>
      <path class="cls-2" d="m94.95,123.55c-.21,0-.43,0-.64-.02-3.65-.17-6.85-1.73-9.04-4.41-2.18-2.68-3.07-6.14-2.49-9.74.57-3.56,2.5-6.84,5.44-9.23,4.91-4,12.25-5.75,16.19-6.44.41-.07,9.97-1.72,11.65.35,1.62,1.99-1.82,10.67-2.22,11.65-1.22,3.02-4.59,10.47-9.39,14.38h0c-2.76,2.25-6.12,3.47-9.5,3.47Zm16.88-28.54c-5.23,0-16.31,1.77-22.34,6.69-2.56,2.08-4.24,4.92-4.73,8-.48,3.03.25,5.93,2.07,8.17s4.51,3.54,7.58,3.68c3.1.14,6.23-.92,8.79-3.01h0c7.24-5.89,11.83-21.07,11.3-23.2-.4-.2-1.34-.32-2.66-.32Z"/>
    </g>
    <path class="cls-5" d="m104.27,131.46l-13.08,4.15-18.58,10.17h-26.27l-10.75-36.75,13.59-29.32,39.83-.44c-.81,8.5-.18,25.54,12.33,47.34.91,1.59,1.88,3.21,2.93,4.85Z"/>
    <path class="cls-5" d="m35.92,120.39c-5.76,3.57-13.15,2.85-16.46-1.85-2.16-3.08-1.03-8.36.14-10.23,1.51-2.42,24.2-18.39,35.13-25.32,11.36-7.2,22.43,3.25,12.75,12.34-.07.07-.15.14-.22.21-.88.8-9.61,7.89-10.52,8.7-3.63,3.27-14.01,11.93-20.82,16.16Z"/>
    <ellipse class="cls-10" cx="32.2" cy="134.71" rx="12.67" ry="17.17" transform="translate(-20.3 6.54) rotate(-8.83)"/>
    <path class="cls-3" d="m101.34,126.61l-35.18,13.13c-28.93,0-28.4-40.09-14.02-60l1.35-.08,35.72-2.11c-1.04,7.76-1.29,25.67,12.13,49.06Z"/>
    <g>
      <path class="cls-8" d="m65.93,132.37c-.22,0-.43-.07-.62-.21-12.31-9.71-7.9-40.5-7.7-41.8.08-.55.59-.92,1.14-.84.55.08.92.59.84,1.14-.05.31-4.44,30.95,6.96,39.94.43.34.51.97.17,1.4-.2.25-.49.38-.79.38Z"/>
      <path class="cls-8" d="m61.07,101.11c-6.76,0-11.28-2-11.56-2.13-.5-.23-.72-.82-.5-1.32.23-.5.82-.73,1.32-.5.1.04,9.84,4.33,21.93-.03.52-.19,1.09.08,1.28.6.19.52-.08,1.09-.6,1.28-4.37,1.58-8.42,2.1-11.88,2.1Z"/>
      <path class="cls-8" d="m59.09,114.89c-6.76,0-11.28-2-11.56-2.13-.5-.23-.72-.82-.5-1.32s.82-.73,1.32-.5c.1.04,9.84,4.33,21.93-.03.52-.19,1.09.08,1.28.6.19.52-.08,1.09-.6,1.28-4.37,1.58-8.42,2.1-11.88,2.1Z"/>
    </g>
    <path class="cls-5" d="m91.46,103.34c-4.73,4.03-12.46,10.24-17.9,13.62-5.76,3.57-13.15,2.85-16.46-1.85-2.16-3.08-1.03-8.36.14-10.24,1.37-2.18,19.93-15.37,31.59-23.03-.1,2.15-.08,4.69.14,7.57.31,4.01,1.05,8.69,2.49,13.93Z"/>
    <path class="cls-5" d="m113.1,137.79s-27.69,10.84-37.66,13.56c0,0,8.43-17.51,4.14-21.81s22.42-3.3,22.42-3.3c0,0,7.7,9.89,11.1,11.56Z"/>
    <path class="cls-1" d="m68.23,151.27s-57.44,1.83-62.46-.33c-5.02-2.16-8.29-48.71-3.25-49.86,5.05-1.15,46.18-2.69,49.32-.15,3.84,3.1,3.7,42.26,3.7,42.26,0,0,15.79.84,15.62,5.33.21,1.25-1.16,2.69-2.94,2.75Z"/>
    <g>
      <path class="cls-11" d="m24.49,125.91l-2.8.07.06,2.24,9.15-.24-.06-2.24-2.8.07c.72-1.33,1.68-2.6,2.84-3.58-.1-.51-.23-1.01-.4-1.51-.09-.27-.2-.53-.32-.78-.36.27-.71.56-1.05.86-.06.05-.11.1-.17.15-.11.1-.22.21-.33.32-.09.09-.19.19-.28.29-.28.29-.54.59-.79.91-.19.23-.36.46-.53.7-.28.39-.54.8-.77,1.22-.17-.26-.34-.52-.53-.77-.1-.14-.2-.27-.31-.41-.17-.21-.34-.42-.51-.61-.33-.37-.68-.73-1.05-1.07-.18-.17-.37-.33-.56-.49-.19-.16-.39-.31-.59-.46-.14-.1-.28-.2-.42-.3-.06-.04-.12-.08-.18-.12,0,0,0,0-.02-.01-.1.26-.2.53-.28.8-.15.5-.26,1-.33,1.52,1.21.93,2.25,2.14,3.04,3.45Z"/>
      <path class="cls-6" d="m11.79,120.74c.07,2.91,1.01,5.69,2.71,8.04.36.5.76.98,1.17,1.42,1.5,1.59,3.33,2.82,5.4,3.6,1.09.41,2.22.68,3.38.82.39.05.77.08,1.16.09.21,0,.41,0,.61,0,.09,0,.18,0,.26,0,.08,0,.16,0,.23,0,.21,0,.43-.02.64-.04,1.55-.13,3.06-.51,4.49-1.14,2.58-1.13,4.76-2.98,6.31-5.35,1.58-2.43,2.37-5.26,2.3-8.16-.01-.53-.06-1.06-.13-1.58-.01-.11-.03-.23-.05-.35l-.15-.9-.86-.03h-.1s-.04,0-.06,0c-.12,0-.23,0-.35,0-.04,0-.07,0-.11,0-.1,0-.2,0-.31,0h0c-.13,0-.26,0-.38.02h-.03c-.13,0-.27.02-.4.03-.12,0-.24.02-.36.03-.01,0-.03,0-.04,0-.14.01-.27.03-.41.05,0,0-.01,0-.02,0-.12.02-.23.03-.35.05-.15.03-.31.05-.46.08-.11.02-.22.05-.33.07-.01,0-.03,0-.04.01-.13.03-.27.06-.4.1,0,0,0,0,0,0-.12.03-.24.06-.35.1-.03,0-.06.02-.09.03-.1.03-.2.06-.31.1-.12.04-.23.08-.35.12-.05.02-.1.03-.14.05-.1.03-.19.07-.29.11-.15.06-.29.12-.44.18-.11.05-.21.09-.32.14-.13.06-.26.12-.38.18-.12.06-.24.12-.35.18-.39.2-.77.43-1.15.67,0,0,0,0-.01,0-.12.08-.25.16-.37.25h0c-.12.09-.25.18-.37.26,0,0,0,0,0,0,.12.26.22.52.32.78.17.49.31.99.4,1.51.4-.34.82-.66,1.26-.94.24-.15.48-.3.72-.43,1.63-.9,3.45-1.41,5.32-1.5.02.23.03.46.04.69.13,4.95-2.72,9.43-7.26,11.41-.11.05-.21.09-.32.13-.23.09-.46.18-.69.25-.9.3-1.83.49-2.78.57-.18.02-.36.03-.54.03-.15,0-.27.01-.4.01h-.54c-.07,0-.13-.01-.19-.02-.02,0-.03,0-.05,0-.08,0-.16-.01-.24-.02h0c-.57-.04-1.14-.13-1.69-.25,0,0,0,0,0,0-.07-.02-.14-.03-.2-.05-.01,0-.02,0-.04,0-.06-.02-.13-.03-.19-.05-.02,0-.03,0-.05-.01-.05-.01-.1-.03-.14-.04,0,0-.02,0-.03,0-.02,0-.04-.01-.06-.02-.05-.01-.09-.03-.14-.04-.03-.01-.06-.02-.09-.03-.04-.01-.08-.02-.11-.04-.04-.01-.08-.03-.12-.04-.04-.01-.08-.03-.11-.04-.02,0-.05-.02-.07-.02-.02,0-.04-.01-.05-.02-.08-.03-.15-.06-.23-.08-4.63-1.75-7.71-6.07-7.84-11.02,0-.11,0-.23,0-.34,0-.04,0-.08,0-.12,0-.07,0-.15,0-.22h0c1.87-.02,3.71.39,5.37,1.2.25.12.5.25.74.39.45.26.89.55,1.3.87.07-.51.18-1.02.32-1.52.08-.27.17-.54.28-.8-.19-.13-.38-.25-.57-.36-.07-.04-.15-.09-.22-.13h0c-.38-.22-.78-.42-1.18-.61-.12-.05-.24-.11-.36-.16-.1-.04-.19-.08-.29-.12-.45-.18-.91-.34-1.37-.47-.09-.03-.18-.05-.27-.08-.08-.02-.16-.04-.25-.06-.08-.02-.17-.04-.25-.06-.24-.06-.49-.1-.73-.15,0,0,0,0-.01,0-.17-.03-.34-.05-.5-.08-.76-.1-1.52-.14-2.29-.12-.13,0-.27,0-.41.02-.04,0-.08,0-.12,0-.04,0-.08,0-.12,0-.08,0-.15.01-.22.02l-.91.08-.1.91c-.02.13-.03.25-.04.36-.04.52-.06,1.05-.05,1.58Zm17.72-1.97c.61-.43,1.26-.81,1.93-1.13-.06-.09-.12-.19-.18-.28-1.2-1.82-2.87-3.28-4.83-4.23l-.52-.26-.51.28c-1.9,1.05-3.49,2.59-4.59,4.46-.06.1-.11.19-.17.29.69.29,1.35.64,1.99,1.03.03-.06.07-.12.11-.19.8-1.36,1.92-2.5,3.24-3.34,1.37.77,2.54,1.86,3.41,3.18.04.06.08.12.12.18Z"/>
      <path class="cls-6" d="m20.64,117.9c.69.29,1.35.64,1.99,1.03.03-.06.07-.12.11-.18.8-1.36,1.92-2.5,3.24-3.34,1.37.77,2.54,1.86,3.41,3.18.04.06.08.12.12.18.61-.43,1.26-.81,1.93-1.13-.06-.09-.12-.19-.18-.28-1.2-1.82-2.87-3.28-4.83-4.23l-.52-.25-.51.28c-1.9,1.05-3.49,2.59-4.59,4.46-.06.1-.11.2-.17.29Z"/>
    </g>
    <path class="cls-5" d="m80.16,94.74s3.77,29.31,14.11,39.97c0,0,4.62,4.43,10.72-1.13,0,0-18.16-33.98-17.31-44.83.84-10.85-7.51,5.99-7.51,5.99Z"/>
    <path class="cls-10" d="m108.64,141.42c-1.09,0-2.16-.5-2.84-1.45-1.56-2.16-3.07-4.39-4.49-6.62-1-1.56-1.99-3.2-3.01-4.99-4.31-7.52-7.61-15.13-9.8-22.62-.15-.5-.28-.99-.42-1.47-1.37-4.97-2.24-9.88-2.61-14.59-.21-2.81-.26-5.5-.15-8,.04-.98.12-1.88.19-2.71.07-.69.14-1.3.22-1.87.4-2.97.92-4.65.97-4.83.58-1.84,2.55-2.86,4.39-2.28,1.84.58,2.86,2.54,2.28,4.38-.01.04-.4,1.33-.71,3.65-.06.48-.13,1.01-.18,1.59-.06.71-.13,1.51-.17,2.38-.1,2.23-.06,4.63.13,7.15.33,4.27,1.13,8.73,2.38,13.27.12.45.25.91.38,1.37,2.04,6.95,5.12,14.05,9.16,21.1.97,1.69,1.9,3.23,2.84,4.7,1.35,2.13,2.78,4.24,4.26,6.29,1.13,1.57.78,3.76-.79,4.89-.62.45-1.33.66-2.04.66Z"/>
    <g>
      <g>
        <path class="cls-5" d="m112.51,33.22C107.06,13.32,88.89.76,69.1.01c-.31-.01-1.86-.01-2.17,0C47.13.76,26.59,13.32,21.14,33.22c-2.44,8.92-7.43,25.06-2.5,39.05,5.29,15.03,26.36,21.33,48.02,21.25h0c.05,0,.11,0,.16,0,.05,0,.11,0,.16,0h0c21.66.07,42.73-6.23,48.02-21.26,4.93-13.99-.06-30.14-2.5-39.05Z"/>
        <ellipse class="cls-4" cx="88.81" cy="51.18" rx="5.28" ry="7.03"/>
        <g>
          <path class="cls-12" d="m53.49,59.59s3.78,7.4,13.33,7.4c10.11,0,13.33-7.4,13.33-7.4"/>
          <path class="cls-10" d="m66.82,67.99c-10.05,0-14.06-7.62-14.22-7.94-.25-.49-.06-1.09.44-1.35.49-.25,1.09-.06,1.34.43.15.29,3.66,6.85,12.44,6.85,9.35,0,12.39-6.73,12.42-6.8.22-.51.81-.74,1.32-.52.51.22.74.81.52,1.32-.14.33-3.61,8-14.25,8Z"/>
        </g>
        <g>
          <ellipse class="cls-7" cx="40.34" cy="63.6" rx="6" ry="3.6"/>
          <ellipse class="cls-7" cx="93.31" cy="63.6" rx="6" ry="3.6"/>
        </g>
      </g>
      <path class="cls-10" d="m47.94,54.61c-.24,0-.48-.09-.68-.26-5.32-4.87-10.22-1.43-10.43-1.28-.45.32-1.07.23-1.4-.22-.33-.44-.23-1.07.21-1.39.06-.05,6.41-4.59,12.96,1.42.41.37.43,1.01.06,1.41-.2.21-.47.32-.74.32Z"/>
      <path class="cls-10" d="m47.93,54.66c-.38,0-.75-.22-.92-.6-2.92-6.6-8.79-5.4-9.05-5.34-.54.12-1.07-.22-1.19-.76-.12-.54.22-1.07.75-1.19.08-.02,7.71-1.64,11.31,6.48.22.5,0,1.1-.51,1.32-.13.06-.27.09-.4.09Z"/>
    </g>
    <ellipse class="cls-10" cx="72.61" cy="134.94" rx="12.67" ry="17.17" transform="translate(-19.85 12.75) rotate(-8.83)"/>
    <g>
      <path class="cls-5" d="m71.33,86.55c-2.41-.9-5.1.32-6,2.73l-2.23,5.94-1.7-6.38c-.66-2.49-3.22-3.97-5.71-3.31-2.49.66-3.97,3.22-3.31,5.71l2.15,8.09c-4.3,1.74-7.34,5.05-7.74,9.1-.65,6.56,5.83,12.58,14.49,13.44,8.66.86,16.2-3.76,16.86-10.32.44-4.46-2.42-8.67-7.02-11.18l2.93-7.82c.9-2.41-.32-5.1-2.73-6Z"/>
      <path class="cls-10" d="m63.37,122.95c-.72,0-1.45-.04-2.18-.11-4.39-.44-8.41-2.16-11.3-4.84-2.96-2.75-4.4-6.18-4.06-9.66.4-4.02,3.2-7.55,7.55-9.56l-1.94-7.29c-.39-1.45-.18-2.97.57-4.27.75-1.3,1.97-2.23,3.42-2.62,3-.8,6.09.99,6.89,3.99l.92,3.46,1.17-3.12c.53-1.41,1.57-2.53,2.94-3.15,1.37-.62,2.9-.68,4.3-.15h0c1.41.53,2.53,1.57,3.15,2.94.62,1.37.67,2.9.15,4.31l-2.64,7.06c4.65,2.82,7.23,7.24,6.79,11.7-.35,3.48-2.44,6.56-5.88,8.67-2.8,1.72-6.24,2.62-9.85,2.62Zm-6.48-36.61c-.31,0-.63.04-.95.12-.96.25-1.75.87-2.25,1.72-.5.85-.63,1.85-.37,2.81l2.15,8.09c.12.47-.12.96-.57,1.14-4.12,1.67-6.79,4.77-7.14,8.3-.29,2.87.94,5.73,3.45,8.06,2.58,2.4,6.2,3.94,10.18,4.33,3.98.39,7.82-.4,10.83-2.24,2.92-1.79,4.69-4.35,4.97-7.22.39-3.91-2.11-7.83-6.52-10.24-.42-.23-.61-.73-.44-1.18l2.93-7.82c.35-.93.31-1.93-.1-2.83-.41-.9-1.14-1.59-2.07-1.93h0c-1.91-.71-4.05.26-4.76,2.17l-2.23,5.94c-.15.39-.51.65-.95.62-.42-.02-.78-.31-.88-.71l-1.7-6.38c-.44-1.65-1.94-2.75-3.58-2.75Z"/>
      <path class="cls-10" d="m52.98,120.1c-.17,0-.35-.05-.51-.14-4.6-2.85-7.08-7.19-6.63-11.62.4-4.02,3.2-7.55,7.55-9.56l-1.94-7.29c-.58-2.19.2-4.5,1.99-5.89.42-.33,1.03-.25,1.35.17.33.42.25,1.03-.17,1.35-1.18.91-1.69,2.44-1.31,3.88l2.15,8.09c.12.47-.12.96-.57,1.14-4.12,1.67-6.79,4.77-7.14,8.3-.37,3.68,1.78,7.34,5.73,9.79.45.28.59.87.31,1.33-.18.29-.5.46-.82.46Z"/>
      <path class="cls-10" d="m58.11,115.78c-.35,0-.69-.19-.86-.53-.24-.48-.05-1.06.43-1.29.14-.07,3.55-1.86,3.12-5.31-.17-1.21-.59-2-1.3-2.42-1.6-.93-4.33.16-5.23.52-.21.08-.36.14-.43.16-.51.14-1.04-.17-1.18-.68-.13-.51.16-1.03.67-1.17.05-.02.13-.05.23-.09,1.12-.44,4.51-1.79,6.92-.39,1.24.72,1.99,2.01,2.24,3.83.6,4.83-3.97,7.18-4.17,7.28-.14.07-.29.1-.43.1Z"/>
    </g>
  </g>
  <g>
    <g>
      <path class="cls-1" d="m115.58,41c-.41-1.53-4.19-2.56-4.19-2.56,0,0-3.68-5.11-10.23-4.91-6.55.2-14.83-.31-29.56,5.93-1.54.47-3.44.64-4.77.69-1.33-.06-3.23-.22-4.77-.69-14.73-6.24-23.01-5.73-29.56-5.93-6.55-.2-10.23,4.91-10.23,4.91,0,0-3.78,1.02-4.19,2.56-.41,1.53,3.78,3.17,3.78,3.17,0,0,2.86,7.88,5.73,12.17,2.86,4.3,6.14,2.45,6.14,2.45,0,0,4.81,1.84,14.93,2.45,10.13.61,12.48-7.16,13.91-10.74.87-2.16,2.83-2.84,4.26-3.04,1.43.2,3.4.88,4.26,3.04,1.43,3.58,3.78,11.35,13.91,10.74,10.13-.61,14.93-2.45,14.93-2.45,0,0,3.27,1.84,6.14-2.45,2.86-4.3,5.73-12.17,5.73-12.17,0,0,4.19-1.64,3.78-3.17Z"/>
      <path class="cls-8" d="m59.84,46.81c-.14,2.71-.79,5.4-2.11,7.77-1.24,2.21-3.16,4.43-5.87,4.43-2.56,0-6.71-.16-10.99-1.03l-1.95-.44h-.01c-.84-.21-1.66-.45-2.48-.74l-3.17-1.3c-3.51-1.75-6.09-4.94-7.26-8.69-1.2-3.84-1.17-7,.08-8.05,1.74-1.47,3.73-3.73,15.16-2.61.16.02.32.03.49.05,1.41.15,2.73.31,3.96.48.77.11,1.49.22,2.19.34h.01c.95.16,1.84.33,2.67.5,5.8,1.22,8.61,2.79,8.97,4.3.33,1.39.41,3.09.31,4.99Z"/>
      <path class="cls-8" d="m107.65,46.81c-1.2,3.82-3.85,7.06-7.45,8.79-3.01,1.45-6.45,2.3-9.66,2.77-.84.14-1.66.24-2.45.32-1,.1-1.95.18-2.84.22-1.33.08-2.5.1-3.46.1-.13,0-.27,0-.4-.02-2.5-.2-4.29-2.31-5.47-4.41-1.33-2.37-1.97-5.06-2.11-7.77-.1-1.9-.02-3.6.3-4.99.51-2.09,5.7-4.29,17-5.53.26-.03.53-.06.8-.09,1.47-.15,2.79-.25,3.98-.3.81-.04,1.55-.05,2.24-.05,1.06.01,1.98.06,2.79.15,4.19.43,5.48,1.78,6.64,2.76,1.25,1.05,1.29,4.21.09,8.05Z"/>
      <path class="cls-3" d="m45.69,36.68l-9.26,20.12-3.17-1.3,7.98-19.35c.16.02.32.03.49.05,1.41.15,2.73.31,3.96.48Z"/>
      <path class="cls-3" d="m50.56,37.52l-9.69,20.46-1.95-.44h-.01l-.09-.05,9.06-20.47h.01c.95.16,1.84.33,2.67.5Z"/>
      <path class="cls-3" d="m85.25,58.91l10.64-23.01c-1.19.05-2.51.15-3.98.3-.27.03-.54.06-.8.09l-9.72,22.7,3.86-.08Z"/>
      <path class="cls-3" d="m100.92,36l-10.38,22.37c-.84.14-1.66.24-2.45.32l10.04-22.84c1.06.01,1.98.06,2.79.15Z"/>
    </g>
    <ellipse class="cls-9" cx="21.04" cy="41.03" rx="1.52" ry=".67"/>
    <ellipse class="cls-9" cx="112.51" cy="41.03" rx="1.52" ry=".67"/>
  </g>
</svg>