<?xml version="1.0" encoding="UTF-8"?>
<svg id="Layer_2" data-name="Layer 2" xmlns="http://www.w3.org/2000/svg" viewBox="0 0 134.53 152.11">
  <defs>
    <style>
      .cls-1 {
        fill: #e3e2e1;
      }

      .cls-1, .cls-2, .cls-3, .cls-4, .cls-5, .cls-6, .cls-7, .cls-8, .cls-9, .cls-10, .cls-11 {
        stroke-width: 0px;
      }

      .cls-2 {
        fill: #fec466;
      }

      .cls-3 {
        fill: #ae4436;
      }

      .cls-4 {
        fill: #8ac249;
      }

      .cls-5 {
        fill: #ad4436;
      }

      .cls-6 {
        fill: #f9b5ab;
      }

      .cls-7 {
        fill: #f99d1c;
      }

      .cls-8 {
        fill: #8b8c8e;
      }

      .cls-9 {
        fill: #549040;
      }

      .cls-10 {
        fill: #bd6a5f;
      }

      .cls-11 {
        fill: #8ac147;
      }
    </style>
  </defs>
  <g>
    <path class="cls-10" d="m7.99,119.29s-4.83-8.48-3.75-10.92,15.48-3.46,18.67,0c3.19,3.46,1.64,13.33-4.63,14.49s-10.29-3.57-10.29-3.57Z"/>
    <path class="cls-10" d="m15.17,97.63s-2.18-9.51-.45-11.54,15.82,1.15,17.87,5.38-2.27,13.24-8.6,12.55c-6.33-.69-8.82-6.38-8.82-6.38Z"/>
    <path class="cls-10" d="m31.04,84.73s-2.18-9.51-.45-11.54,15.82,1.15,17.87,5.38-2.27,13.24-8.6,12.55c-6.33-.69-8.82-6.38-8.82-6.38Z"/>
    <path class="cls-10" d="m125.65,119.29s4.83-8.48,3.75-10.92-15.48-3.46-18.67,0c-3.19,3.46-1.64,13.33,4.63,14.49s10.29-3.57,10.29-3.57Z"/>
    <path class="cls-10" d="m118.48,97.63s2.18-9.51.45-11.54-15.82,1.15-17.87,5.38,2.27,13.24,8.6,12.55,8.82-6.38,8.82-6.38Z"/>
    <path class="cls-10" d="m102.6,84.73s2.18-9.51.45-11.54c-1.73-2.03-15.82,1.15-17.87,5.38s2.27,13.24,8.6,12.55,8.82-6.38,8.82-6.38Z"/>
    <path class="cls-3" d="m.23,119.8c2.77,4.75,18.14,25.18,39.04,17.31l9.75-16.24s-23.64-13.35-47.9-3.58c-.99.4-1.43,1.58-.89,2.51Z"/>
    <path class="cls-3" d="m36.61,64.46c-.79,5.44-1.46,31,19.8,37.84l17.73-6.65s0-24.72-35.28-32.6c-1.05-.23-2.1.35-2.26,1.41Z"/>
    <path class="cls-3" d="m97.92,64.46c.79,5.44,1.46,31-19.8,37.84l-17.73-6.65s0-24.72,35.28-32.6c1.05-.23,2.1.35,2.26,1.41Z"/>
    <path class="cls-3" d="m7.24,95.25c2.12,7.36,10.86,31.37,33.86,27.11,0,0,12.88-6.47,7.07-16.15-5.66-9.43-12.96-14.77-39.34-13.19-1.12.07-1.9,1.15-1.59,2.23Z"/>
    <path class="cls-3" d="m21.32,74.81c-.83-.27-1.68.33-1.69,1.21-.05,7.09,1.04,33.82,20.18,36.72,14.66,2.22,19.54-19.65,10.53-25.88-8.46-5.85-20.43-9.23-29.02-12.04Z"/>
    <path class="cls-10" d="m35.78,123.87c-19.7,0-27.48-21.32-29.5-28.34h0c-.23-.81-.09-1.66.4-2.34.49-.69,1.25-1.11,2.1-1.16,26-1.56,34.21,3.61,40.25,13.68,1.63,2.71,2.05,5.44,1.27,8.14-1.69,5.82-8.46,9.28-8.75,9.42l-.27.09c-1.93.36-3.77.52-5.5.52Zm-27.58-28.89c2.08,7.21,10.56,30.39,32.57,26.43.87-.47,6.28-3.54,7.61-8.14.62-2.13.26-4.33-1.07-6.54-5.77-9.61-13.29-14.21-38.42-12.71-.23.01-.45.13-.58.32-.08.11-.19.34-.11.64h0Z"/>
    <path class="cls-3" d="m134.3,119.8c-2.77,4.75-18.14,25.18-39.04,17.31l-9.75-16.24s23.64-13.35,47.9-3.58c.99.4,1.43,1.58.89,2.51Z"/>
    <path class="cls-3" d="m127.29,95.25c-2.12,7.36-10.86,31.37-33.86,27.11,0,0-12.88-6.47-7.07-16.15s12.96-14.77,39.34-13.19c1.12.07,1.9,1.15,1.59,2.23Z"/>
    <path class="cls-3" d="m113.21,74.81c.83-.27,1.68.33,1.69,1.21.05,7.09-1.04,33.82-20.18,36.72-14.66,2.22-19.57-19.91-10.56-26.14,8.46-5.85,20.46-8.97,29.05-11.78Z"/>
    <path class="cls-10" d="m98.75,123.87c-1.74,0-3.57-.17-5.5-.52l-.27-.09c-.29-.14-7.06-3.6-8.75-9.42-.78-2.69-.35-5.43,1.27-8.14,6.05-10.07,14.25-15.23,40.25-13.68.85.05,1.61.48,2.1,1.17.48.68.63,1.54.4,2.34l-.96-.28.96.28c-2.02,7.02-9.8,28.34-29.5,28.34Zm-4.99-2.46c22.02,3.96,30.5-19.22,32.57-26.43.09-.3-.03-.53-.11-.64-.14-.19-.35-.31-.58-.32-25.12-1.51-32.65,3.1-38.42,12.71-1.33,2.21-1.69,4.41-1.07,6.54,1.33,4.6,6.73,7.67,7.61,8.14Z"/>
  </g>
  <path class="cls-4" d="m36.13,150.8s28.27-13.53,62.67,0c0,0,.41-63.99-5.01-76.07-5.42-12.08-38.86-8.23-38.86-8.23l-17.22,29.33-1.57,54.96Z"/>
  <path class="cls-2" d="m91.56,109.84c0,18.32-10.88,29.91-24.29,29.91s-24.29-11.59-24.29-29.91,10.88-46.35,24.29-46.35,24.29,28.04,24.29,46.35Z"/>
  <path class="cls-7" d="m65.99,99.03c-8.79,0-14.48-3.44-14.85-3.66-.47-.29-.61-.91-.32-1.38.29-.47.9-.61,1.38-.32.13.08,13.25,7.95,30.32-.89.49-.25,1.09-.06,1.35.43.25.49.06,1.09-.43,1.35-6.53,3.39-12.49,4.48-17.45,4.48Z"/>
  <path class="cls-7" d="m67.17,132.98c-8.25,0-14.38-4.17-14.48-4.24-.45-.32-.56-.94-.25-1.39.31-.45.94-.57,1.39-.25.55.38,13.6,9.19,26.93-.83.44-.33,1.07-.24,1.4.2.33.44.24,1.07-.2,1.4-5.13,3.86-10.28,5.11-14.8,5.11Z"/>
  <path class="cls-7" d="m65.98,114.31c-8.79,0-14.48-3.44-14.85-3.66-.47-.29-.61-.91-.32-1.38.29-.47.91-.61,1.38-.32.13.08,13.25,7.95,30.32-.89.49-.25,1.09-.06,1.35.43.25.49.06,1.09-.43,1.35-6.53,3.39-12.49,4.48-17.45,4.48Z"/>
  <path class="cls-7" d="m67.3,132.38c-.55,0-1-.45-1-1v-44.67c0-.55.44-1,.99-1s1,.45,1,1v44.67c0,.55-.44,1-.99,1Z"/>
  <g>
    <path class="cls-4" d="m112.95,33.22C107.5,13.32,89.33.76,69.54.01c-.31-.01-1.86-.01-2.17,0C47.57.76,27.03,13.32,21.58,33.22c-2.44,8.92-7.43,25.06-2.5,39.05,5.29,15.03,26.36,21.33,48.02,21.25h0c.05,0,.11,0,.16,0,.05,0,.11,0,.16,0h0c21.66.07,42.73-6.23,48.02-21.26,4.93-13.99-.06-30.14-2.5-39.05Z"/>
    <g>
      <ellipse class="cls-3" cx="45.28" cy="51.18" rx="5.28" ry="7.03"/>
      <ellipse class="cls-3" cx="89.25" cy="51.18" rx="5.28" ry="7.03"/>
    </g>
    <g>
      <path class="cls-11" d="m53.93,59.59s3.78,7.4,13.33,7.4c10.11,0,13.33-7.4,13.33-7.4"/>
      <path class="cls-9" d="m67.27,67.99c-10.05,0-14.06-7.62-14.22-7.94-.25-.49-.06-1.09.44-1.35.49-.25,1.09-.06,1.34.43.15.29,3.66,6.85,12.44,6.85,9.29,0,12.29-6.52,12.42-6.8.22-.5.81-.73,1.32-.51.5.22.73.81.52,1.31-.14.33-3.61,8-14.25,8Z"/>
    </g>
    <g>
      <ellipse class="cls-6" cx="40.78" cy="63.6" rx="6" ry="3.6"/>
      <ellipse class="cls-6" cx="93.75" cy="63.6" rx="6" ry="3.6"/>
    </g>
  </g>
  <path class="cls-4" d="m37.37,120.59c-.71-.38-1.43-.8-2.15-1.25-6.6-4.14-6.87-10.94-4.57-17.9,3.99-12.06,15.72-24.59,15.72-24.59,0,0,10.53-6.07,6.63,2.4s-5.59,18.76-4.86,22.25c.73,3.48,13.99,2.03,16.87,11.04,2.76,8.65-10.6,17.36-27.63,8.04Z"/>
  <path class="cls-1" d="m57.66,128.72s54.52,7.03,59.72,5.36c5.2-1.68,15.36-47.46,10.45-49.09-4.91-1.62-46.49-8.54-50.83-3.97s-8.99,41.02-8.99,41.02c0,0-12.76-.81-13.01,3.67-.33,1.22.9,2.79,2.66,3.01Z"/>
  <g>
    <path class="cls-10" d="m100.82,107.63l2.77.43-.34,2.21-9.04-1.41.34-2.21,2.77.43c-.54-1.41-1.34-2.79-2.36-3.92.16-.5.36-.98.59-1.44.13-.25.26-.5.41-.74.33.31.64.64.93.99.05.06.1.12.15.17.1.12.19.24.29.36.08.1.16.21.24.32.24.32.46.66.67,1,.15.25.3.5.44.76.22.42.43.86.61,1.31.2-.24.41-.47.63-.7.12-.12.24-.25.36-.36.19-.19.39-.37.59-.54.38-.33.77-.64,1.18-.93.2-.14.41-.28.62-.42.21-.13.43-.26.65-.38.15-.08.3-.17.45-.24.06-.03.13-.06.19-.1,0,0,0,0,.02,0,.07.27.13.55.17.83.08.51.13,1.03.13,1.55-1.32.76-2.51,1.84-3.46,3.03Z"/>
    <path class="cls-5" d="m114.24,102.56c0-.12.01-.23.01-.36l.02-.91-.89-.2c-.07-.01-.14-.03-.22-.05-.04,0-.08-.02-.12-.02-.04,0-.08-.01-.12-.02-.14-.03-.28-.05-.41-.07-.76-.12-1.53-.18-2.29-.17-.17,0-.34,0-.51.01,0,0,0,0-.01,0-.25.01-.5.03-.75.05-.08,0-.17.02-.25.03-.08,0-.17.02-.25.03-.09.01-.19.02-.28.04-.48.07-.95.17-1.42.29-.1.03-.2.05-.3.08-.13.04-.25.07-.38.11-.42.13-.84.28-1.25.45h0c-.08.03-.16.06-.24.1-.21.09-.41.18-.61.29.07.27.13.55.17.83.08.51.12,1.03.13,1.55.45-.26.92-.5,1.41-.69.26-.11.52-.21.79-.3,1.76-.59,3.63-.76,5.48-.51h0c0,.08-.02.15-.02.23,0,.04,0,.08-.01.12-.02.11-.03.22-.05.34-.76,4.89-4.37,8.79-9.19,9.92-.08.02-.16.04-.24.05-.02,0-.04,0-.05.01-.02,0-.05,0-.07.01-.04,0-.08.02-.11.02-.04,0-.08.02-.12.02-.04,0-.08.01-.12.02-.03,0-.06,0-.1.02-.05,0-.1.02-.15.02-.02,0-.04,0-.07,0,0,0-.02,0-.03,0-.05,0-.1.01-.15.02-.02,0-.03,0-.05,0-.07,0-.13.02-.19.02-.01,0-.02,0-.04,0-.07,0-.14.01-.21.02,0,0,0,0,0,0-.57.05-1.14.06-1.71.03h0c-.08,0-.16-.01-.24-.02-.02,0-.03,0-.05,0-.06,0-.13,0-.19-.02l-.53-.06c-.13-.02-.26-.04-.4-.06-.18-.03-.36-.06-.53-.1-.93-.2-1.83-.51-2.69-.93-.22-.11-.44-.22-.65-.34-.1-.06-.2-.11-.3-.17-4.24-2.55-6.5-7.35-5.73-12.25.04-.23.08-.45.13-.68,1.85.32,3.59,1.06,5.09,2.17.23.17.45.34.66.52.4.34.78.71,1.13,1.1.16-.5.36-.98.59-1.44.13-.25.26-.5.41-.74,0,0,0,0,0,0-.11-.1-.22-.21-.33-.31h0c-.11-.1-.22-.2-.34-.3,0,0,0,0-.01-.01-.34-.29-.69-.56-1.05-.81-.11-.08-.22-.15-.33-.22-.12-.08-.24-.15-.36-.23-.1-.06-.2-.12-.3-.18-.14-.08-.27-.16-.41-.23-.09-.05-.18-.1-.27-.14-.05-.02-.09-.05-.14-.07-.11-.06-.22-.11-.33-.16-.1-.05-.19-.09-.29-.13-.03-.01-.06-.03-.09-.04-.11-.05-.22-.1-.34-.14,0,0,0,0,0,0-.13-.05-.25-.1-.38-.15-.01,0-.03-.01-.04-.02-.11-.04-.21-.08-.32-.11-.15-.05-.3-.1-.45-.14-.11-.03-.23-.07-.34-.1,0,0-.01,0-.02,0-.13-.04-.26-.07-.4-.1-.01,0-.03,0-.04-.01-.12-.03-.24-.06-.36-.08-.13-.03-.26-.06-.39-.08h-.03c-.13-.03-.25-.05-.38-.07h0c-.1-.02-.2-.03-.3-.04-.03,0-.07,0-.11-.02-.11-.01-.23-.03-.34-.04-.02,0-.04,0-.06,0h-.1s-.86-.09-.86-.09l-.26.88c-.04.12-.07.24-.1.35-.14.51-.25,1.03-.33,1.55-.45,2.87-.02,5.78,1.23,8.39,1.22,2.55,3.15,4.67,5.56,6.12,1.33.8,2.78,1.37,4.31,1.7.21.05.42.09.63.12.08.01.15.03.23.04.09.01.17.03.26.04.2.03.4.05.6.07.39.04.78.06,1.17.06,1.16.02,2.32-.11,3.46-.38,2.15-.5,4.13-1.49,5.82-2.88.47-.39.92-.81,1.35-1.26,1.99-2.11,3.28-4.75,3.72-7.62.08-.52.14-1.05.16-1.57Zm-17.34-2.83c1.03-1.19,2.34-2.12,3.8-2.71,1.21,1,2.16,2.28,2.79,3.73.03.06.06.13.08.2.68-.31,1.38-.57,2.1-.77-.04-.1-.08-.21-.13-.31-.86-1.99-2.23-3.73-3.98-5.01l-.47-.34-.55.19c-2.06.69-3.9,1.93-5.33,3.57-.07.08-.15.17-.21.26.62.41,1.21.87,1.77,1.37.04-.06.09-.11.14-.16Z"/>
    <path class="cls-5" d="m105.54,99.86c-.86-1.99-2.23-3.73-3.98-5.01l-.47-.34-.55.19c-2.06.69-3.9,1.93-5.33,3.57-.07.08-.14.17-.21.26.62.41,1.21.87,1.77,1.37.04-.05.09-.11.14-.16,1.04-1.19,2.34-2.12,3.79-2.71,1.21,1,2.16,2.28,2.79,3.73.03.06.06.13.08.2.68-.31,1.38-.57,2.1-.77-.04-.1-.08-.21-.13-.31Z"/>
  </g>
  <ellipse class="cls-9" cx="98.6" cy="134.95" rx="12.67" ry="17.17"/>
  <ellipse class="cls-9" cx="35.93" cy="133.91" rx="12.67" ry="17.17"/>
  <g>
    <g>
      <path class="cls-1" d="m116.22,40.36c-.41-1.53-4.19-2.56-4.19-2.56,0,0-3.68-5.11-10.23-4.91-6.55.2-14.83-.31-29.56,5.93-1.54.47-3.44.64-4.77.69-1.33-.06-3.23-.22-4.77-.69-14.73-6.24-23.01-5.73-29.56-5.93-6.55-.2-10.23,4.91-10.23,4.91,0,0-3.78,1.02-4.19,2.56-.41,1.53,3.78,3.17,3.78,3.17,0,0,2.86,7.88,5.73,12.17,2.86,4.3,6.14,2.45,6.14,2.45,0,0,4.81,1.84,14.93,2.45,10.13.61,12.48-7.16,13.91-10.74.87-2.16,2.83-2.84,4.26-3.04,1.43.2,3.4.88,4.26,3.04,1.43,3.58,3.78,11.35,13.91,10.74,10.13-.61,14.93-2.45,14.93-2.45,0,0,3.27,1.84,6.14-2.45,2.86-4.3,5.73-12.17,5.73-12.17,0,0,4.19-1.64,3.78-3.17Z"/>
      <path class="cls-7" d="m60.48,46.16c-.14,2.71-.79,5.4-2.11,7.77-1.24,2.21-3.16,4.43-5.87,4.43-2.56,0-6.71-.16-10.99-1.03l-1.95-.44h-.01c-.84-.21-1.66-.45-2.48-.74l-3.17-1.3c-3.51-1.75-6.09-4.94-7.26-8.69-1.2-3.84-1.17-7,.08-8.05,1.74-1.47,3.73-3.73,15.16-2.61.16.02.32.03.49.05,1.41.15,2.73.31,3.96.48.77.11,1.49.22,2.19.34h.01c.95.16,1.84.33,2.67.5,5.8,1.22,8.61,2.79,8.97,4.3.33,1.39.41,3.09.31,4.99Z"/>
      <path class="cls-7" d="m108.29,46.16c-1.2,3.82-3.85,7.06-7.45,8.79-3.01,1.45-6.45,2.3-9.66,2.77-.84.14-1.66.24-2.45.32-1,.1-1.95.18-2.84.22-1.33.08-2.5.1-3.46.1-.13,0-.27,0-.4-.02-2.5-.2-4.29-2.31-5.47-4.41-1.33-2.37-1.97-5.06-2.11-7.77-.1-1.9-.02-3.6.3-4.99.51-2.09,5.7-4.29,17-5.53.26-.03.53-.06.8-.09,1.47-.15,2.79-.25,3.98-.3.81-.04,1.55-.05,2.24-.05,1.06.01,1.98.06,2.79.15,4.19.43,5.48,1.78,6.64,2.76,1.25,1.05,1.29,4.21.09,8.05Z"/>
      <path class="cls-2" d="m46.33,36.03l-9.26,20.12-3.17-1.3,7.98-19.35c.16.02.32.03.49.05,1.41.15,2.73.31,3.96.48Z"/>
      <path class="cls-2" d="m51.2,36.87l-9.69,20.46-1.95-.44h-.01l-.09-.05,9.06-20.47h.01c.95.16,1.84.33,2.67.5Z"/>
      <path class="cls-2" d="m85.89,58.26l10.64-23.01c-1.19.05-2.51.15-3.98.3-.27.03-.54.06-.8.09l-9.72,22.7,3.86-.08Z"/>
      <path class="cls-2" d="m101.56,35.35l-10.38,22.37c-.84.14-1.66.24-2.45.32l10.04-22.84c1.06.01,1.98.06,2.79.15Z"/>
    </g>
    <ellipse class="cls-8" cx="21.68" cy="40.39" rx="1.52" ry=".67"/>
    <ellipse class="cls-8" cx="113.16" cy="40.39" rx="1.52" ry=".67"/>
  </g>
</svg>