<?xml version="1.0" encoding="UTF-8"?>
<svg
  id="Layer_2"
  data-name="Layer 2"
  xmlns="http://www.w3.org/2000/svg"
  viewBox="0 0 126.52 101.36"
>
  <defs>
    <style>
      .cls-1 {
        fill: #e3e2e1;
      }

      .cls-1,
      .cls-2,
      .cls-3,
      .cls-4,
      .cls-5,
      .cls-6,
      .cls-7,
      .cls-8,
      .cls-9 {
        stroke-width: 0px;
      }

      .cls-2 {
        fill: #fec466;
      }

      .cls-3 {
        fill: #ae4436;
      }

      .cls-4 {
        fill: #8ac249;
      }

      .cls-5 {
        fill: #f9b5ab;
      }

      .cls-6 {
        fill: #f99d1c;
      }

      .cls-7 {
        fill: #8b8c8e;
      }

      .cls-8 {
        fill: #549040;
      }

      .cls-9 {
        fill: #8ac147;
      }
    </style>
  </defs>
  <g>
    <path
      class="cls-4"
      d="m108.3,33.16C102.83,13.27,84.65.73,64.85,0c-.31-.01-1.86-.01-2.17,0C42.89.79,22.36,13.37,16.94,33.28c-2.43,8.92-7.4,25.07-2.45,39.05,5.31,15.02,26.39,21.29,48.05,21.2h0c.05,0,.11,0,.16,0,.05,0,.11,0,.16,0h0c21.66.04,42.72-6.28,48-21.32,4.92-14-.1-30.14-2.55-39.05Z"
    />
    <g>
      <ellipse
        class="cls-3"
        cx="40.65"
        cy="51.21"
        rx="5.28"
        ry="7.03"
        transform="translate(-.06 .05) rotate(-.07)"
      />
      <ellipse
        class="cls-3"
        cx="84.63"
        cy="51.15"
        rx="5.28"
        ry="7.03"
        transform="translate(-.06 .1) rotate(-.07)"
      />
    </g>
    <g>
      <path
        class="cls-9"
        d="m49.32,59.61s3.79,7.39,13.34,7.38c10.11-.01,13.32-7.41,13.32-7.41"
      />
      <path
        class="cls-8"
        d="m62.64,67.99c-10.03,0-14.04-7.6-14.21-7.93-.25-.49-.06-1.09.43-1.35.49-.25,1.09-.06,1.34.43.15.29,3.66,6.84,12.43,6.84h.02c9.35-.01,12.38-6.74,12.41-6.81.22-.51.81-.74,1.32-.52.51.22.74.81.52,1.32-.14.33-3.6,8-14.24,8.02h-.02Z"
      />
    </g>
    <g>
      <ellipse
        class="cls-5"
        cx="36.18"
        cy="63.63"
        rx="6"
        ry="3.6"
        transform="translate(-.08 .04) rotate(-.07)"
      />
      <ellipse
        class="cls-5"
        cx="89.14"
        cy="63.57"
        rx="6"
        ry="3.6"
        transform="translate(-.08 .11) rotate(-.07)"
      />
    </g>
  </g>
  <g>
    <g>
      <path
        class="cls-1"
        d="m111.59,40.3c-.41-1.53-4.2-2.55-4.2-2.55,0,0-3.69-5.11-10.23-4.9-6.55.21-14.83-.29-29.55,5.97-1.54.48-3.44.64-4.77.7-1.33-.05-3.23-.22-4.77-.69-14.74-6.22-23.02-5.7-29.57-5.9-6.55-.2-10.22,4.92-10.22,4.92,0,0-3.78,1.03-4.19,2.56-.41,1.53,3.79,3.17,3.79,3.17,0,0,2.87,7.87,5.74,12.17,2.87,4.29,6.14,2.45,6.14,2.45,0,0,4.81,1.84,14.94,2.44,10.13.6,12.47-7.18,13.9-10.76.86-2.16,2.83-2.85,4.26-3.05,1.43.2,3.4.87,4.27,3.04,1.44,3.58,3.8,11.35,13.92,10.72,10.13-.63,14.93-2.47,14.93-2.47,0,0,3.28,1.84,6.13-2.46,2.86-4.3,5.71-12.18,5.71-12.18,0,0,4.19-1.64,3.78-3.18Z"
      />
      <path
        class="cls-6"
        d="m55.86,46.17c-.14,2.71-.78,5.4-2.1,7.77-1.24,2.21-3.15,4.43-5.86,4.44-2.56,0-6.71-.15-10.99-1.02l-1.95-.44h-.01c-.84-.21-1.66-.45-2.48-.74l-3.17-1.3c-3.51-1.75-6.1-4.93-7.27-8.68-1.2-3.84-1.18-7,.07-8.05,1.74-1.47,3.73-3.73,15.16-2.63.16.02.32.03.49.05,1.41.15,2.73.31,3.96.48.77.11,1.49.22,2.19.34h.01c.95.16,1.84.33,2.67.5,5.8,1.21,8.61,2.78,8.98,4.29.33,1.39.41,3.09.32,4.99Z"
      />
      <path
        class="cls-6"
        d="m103.67,46.11c-1.2,3.82-3.84,7.06-7.44,8.8-3.01,1.45-6.45,2.31-9.66,2.78-.84.14-1.66.24-2.45.32-1,.1-1.95.18-2.84.22-1.33.08-2.5.1-3.46.1-.13,0-.27,0-.4-.02-2.5-.2-4.29-2.3-5.48-4.4-1.33-2.37-1.98-5.06-2.12-7.77-.1-1.9-.02-3.6.29-4.99.51-2.09,5.69-4.3,16.99-5.55.26-.03.53-.06.8-.09,1.47-.15,2.79-.25,3.98-.3.81-.04,1.55-.05,2.24-.05,1.06,0,1.98.06,2.79.15,4.19.42,5.48,1.77,6.64,2.75,1.25,1.05,1.3,4.21.1,8.05Z"
      />
      <path
        class="cls-2"
        d="m41.69,36.06l-9.24,20.13-3.17-1.3,7.96-19.36c.16.02.32.03.49.05,1.41.15,2.73.31,3.96.48Z"
      />
      <path
        class="cls-2"
        d="m46.56,36.89l-9.66,20.47-1.95-.44h-.01s-.09-.05-.09-.05l9.03-20.48h.01c.95.16,1.84.33,2.67.5Z"
      />
      <path
        class="cls-2"
        d="m81.28,58.24l10.61-23.02c-1.19.05-2.51.15-3.98.3-.27.03-.54.06-.8.09l-9.69,22.71,3.86-.08Z"
      />
      <path
        class="cls-2"
        d="m96.92,35.31l-10.35,22.38c-.84.14-1.66.24-2.45.32l10.01-22.85c1.06,0,1.98.06,2.79.15Z"
      />
    </g>
    <ellipse
      class="cls-7"
      cx="17.04"
      cy="40.44"
      rx="1.52"
      ry=".67"
      transform="translate(-.05 .02) rotate(-.07)"
    />
    <ellipse
      class="cls-7"
      cx="108.52"
      cy="40.33"
      rx="1.52"
      ry=".67"
      transform="translate(-.05 .13) rotate(-.07)"
    />
  </g>
  <g>
    <g>
      <path
        class="cls-4"
        d="m1.04,72.25c1.62-2,4.56-2.31,6.56-.69l4.93,3.99-1.77-6.36c-.69-2.48.76-5.05,3.24-5.75,2.48-.69,5.05.76,5.75,3.24l2.25,8.07c4.59-.68,8.88.63,11.29,3.91,3.89,5.32,1.36,13.8-5.66,18.94-7.02,5.13-15.87,4.98-19.76-.34-2.65-3.62-2.32-8.7.37-13.2l-6.49-5.25c-2-1.62-2.31-4.56-.69-6.56Z"
      />
      <path
        class="cls-8"
        d="m33.38,91.99c-.15,0-.3-.04-.45-.11-.47-.25-.65-.83-.41-1.3,2.16-4.12,2.15-8.36-.03-11.34-2.1-2.86-5.97-4.18-10.37-3.53-.47.08-.94-.23-1.07-.69l-2.25-8.07c-.4-1.44-1.62-2.49-3.09-2.68-.53-.07-.9-.55-.83-1.08.07-.53.55-.9,1.08-.83,2.25.29,4.09,1.89,4.71,4.07l2.03,7.27c4.78-.48,8.97,1.14,11.36,4.4,2.62,3.59,2.69,8.59.18,13.38-.17.33-.51.52-.85.52Z"
      />
      <path
        class="cls-8"
        d="m26.51,90.88c-1.19,0-5.29-.29-6.96-4.16-.71-1.7-.72-3.2-.02-4.45,1.36-2.43,4.97-2.99,6.16-3.17.11-.02.2-.03.25-.04.51-.11,1.03.2,1.16.71.12.51-.16,1.02-.66,1.16-.07.02-.23.05-.45.08-.96.15-3.87.6-4.77,2.21-.4.72-.36,1.62.11,2.75,1.37,3.19,5.22,2.99,5.38,2.98.52-.03.99.37,1.02.9.03.53-.37.99-.9,1.02-.03,0-.14,0-.32,0Z"
      />
    </g>
    <g>
      <path
        class="cls-4"
        d="m125.48,72.1c-1.63-2-4.56-2.3-6.56-.68l-4.92,4,1.76-6.36c.69-2.48-.77-5.05-3.25-5.74-2.48-.69-5.05.77-5.74,3.25l-2.23,8.07c-4.59-.67-8.88.65-11.28,3.94-3.88,5.33-1.32,13.81,5.71,18.92,7.03,5.12,15.88,4.94,19.76-.39,2.64-3.63,2.29-8.71-.41-13.19l6.48-5.27c2-1.63,2.3-4.56.68-6.56Z"
      />
      <path
        class="cls-8"
        d="m93.18,91.92c-.35,0-.68-.19-.85-.51-2.53-4.78-2.47-9.78.14-13.38,2.38-3.27,6.58-4.89,11.35-4.43l2.01-7.27c.6-2.18,2.44-3.79,4.69-4.08.53-.07,1.01.3,1.08.83.07.53-.3,1.01-.83,1.08-1.48.19-2.69,1.25-3.09,2.68l-2.23,8.07c-.13.47-.6.76-1.07.7-4.4-.64-8.27.69-10.36,3.56-2.17,2.99-2.17,7.23,0,11.34.25.47.07,1.05-.4,1.3-.14.08-.3.11-.45.11Z"
      />
      <path
        class="cls-8"
        d="m100.03,90.79c-.17,0-.28,0-.3,0-.53-.03-.93-.49-.9-1.02.03-.53.5-.94,1.02-.9.16,0,4,.19,5.38-3,.47-1.13.5-2.03.1-2.74-.91-1.61-3.82-2.05-4.78-2.2-.22-.03-.38-.06-.45-.08-.51-.14-.81-.67-.67-1.19.14-.51.66-.81,1.17-.68.05.01.13.02.24.04,1.19.18,4.8.73,6.17,3.16.7,1.25.7,2.74,0,4.44-1.67,3.9-5.8,4.19-6.97,4.19Z"
      />
    </g>
  </g>
</svg>
