<?xml version="1.0" encoding="UTF-8"?>
<svg id="Layer_2" data-name="Layer 2" xmlns="http://www.w3.org/2000/svg" viewBox="0 0 112.94 106.8">
  <defs>
    <style>
      .cls-1 {
        fill: #e3e2e1;
      }

      .cls-1, .cls-2, .cls-3, .cls-4, .cls-5, .cls-6, .cls-7, .cls-8, .cls-9, .cls-10 {
        stroke-width: 0px;
      }

      .cls-2 {
        fill: #bd695d;
      }

      .cls-3 {
        fill: #fec466;
      }

      .cls-4 {
        fill: #ae4436;
      }

      .cls-5 {
        fill: #8ac249;
      }

      .cls-6 {
        fill: #f9b5ab;
      }

      .cls-7 {
        fill: #f99d1c;
      }

      .cls-8 {
        fill: #8b8c8e;
      }

      .cls-9 {
        fill: #549040;
      }

      .cls-10 {
        fill: #8ac147;
      }
    </style>
  </defs>
  <g>
    <path class="cls-2" d="m53.71,27.9c.89,6.57-3.15,12.54-9.02,13.34-5.87.79-11.35-3.89-12.24-10.47-1.26-9.36,5.69-23.08,7.67-23.35s12.41,11.73,13.59,20.48Z"/>
    <path class="cls-2" d="m90.02,56.68c-6.17,2.43-12.93-.06-15.11-5.57-2.17-5.51,1.06-11.95,7.23-14.39,8.79-3.47,23.77,0,24.51,1.87s-8.42,14.85-16.63,18.09Z"/>
    <path class="cls-2" d="m83.38,35.32c-3.82,5.42-10.84,7.06-15.68,3.65-4.85-3.41-5.68-10.57-1.87-15.99,5.43-7.73,19.86-13.07,21.5-11.92,1.64,1.15,1.13,17.04-3.95,24.26Z"/>
    <path class="cls-2" d="m70.39,26.76c-1.94,6.34-8.1,10.08-13.77,8.35-5.67-1.73-8.69-8.28-6.75-14.62,2.76-9.03,14.8-18.6,16.72-18.02,1.92.58,6.38,15.84,3.8,24.28Z"/>
    <path class="cls-4" d="m90.19,70.87c-7.78,1.99-15.53-2.04-17.3-8.99-1.77-6.95,3.09-14.2,10.88-16.18,11.08-2.83,28.56,3.61,29.16,5.96.6,2.35-12.37,16.57-22.73,19.21Z"/>
    <path class="cls-4" d="m28.55,47.25c4.46,6.68,12.91,8.86,18.88,4.88,5.97-3.98,7.19-12.63,2.73-19.31-6.35-9.51-23.66-16.4-25.68-15.05-2.02,1.35-1.87,20.59,4.07,29.48Z"/>
    <g>
      <path class="cls-4" d="m70.42,28.31c.47,8.46-5.5,15.67-13.34,16.1-7.84.44-14.58-6.07-15.05-14.52-.67-12.05,9.98-28.84,12.63-28.99s15.14,16.15,15.76,27.41Z"/>
      <path class="cls-2" d="m63.42,43.44c-1.89,1.08-4.02,1.75-6.3,1.88-8.33.46-15.5-6.44-16-15.38C40.47,18.16,51,.2,54.61,0c2.36-.13,7.05,6.12,9.45,9.84,2.05,3.18,6.87,11.33,7.27,18.42h0c.36,6.49-2.9,12.31-7.9,15.18ZM54.48,1.89c-2.31,1.33-12.18,16.45-11.54,27.95.44,7.94,6.76,14.08,14.09,13.67,7.33-.41,12.93-7.2,12.49-15.15h0c-.6-10.84-12.51-26.26-14.84-26.55-.06.01-.13.04-.2.09Z"/>
    </g>
    <g>
      <path class="cls-4" d="m92.41,49.26c-5.71,6.26-15.04,7.04-20.84,1.74-5.8-5.29-5.87-14.66-.16-20.91,8.13-8.91,27.58-13.06,29.54-11.28,1.96,1.79-.93,22.11-8.54,30.44Z"/>
      <path class="cls-2" d="m88.9,53.23c-2.09,1.2-4.4,1.94-6.81,2.14-4.19.35-8.15-.96-11.14-3.69-2.99-2.73-4.66-6.55-4.69-10.76-.03-4.18,1.56-8.24,4.47-11.43,7.95-8.71,28.15-13.77,30.82-11.33,1.74,1.59.56,9.32-.41,13.64-.83,3.69-3.28,12.84-8.07,18.08h0c-1.23,1.35-2.64,2.48-4.17,3.36Zm-10.36-27.52c-2.47,1.42-4.72,3.08-6.47,5-2.61,2.86-4.03,6.48-4,10.2.03,3.69,1.49,7.04,4.1,9.43s6.09,3.53,9.77,3.23c3.71-.31,7.19-2.05,9.79-4.91,7.32-8.02,9.99-27.32,8.57-29.18-1.24-.81-12.91,1.15-21.77,6.24Z"/>
    </g>
    <g>
      <path class="cls-4" d="m82.64,34.48c-3.14,7.05-10.98,10.41-17.52,7.5-6.54-2.91-9.29-10.98-6.16-18.04,4.47-10.05,20.09-19.23,22.3-18.25s5.55,19.39,1.37,28.78Z"/>
      <path class="cls-2" d="m77.07,42.03c-.5.29-1.02.55-1.55.77-3.54,1.52-7.36,1.52-10.76,0-3.39-1.51-5.95-4.35-7.19-8-1.24-3.62-1.03-7.61.58-11.23,2.7-6.07,8.86-11.14,12.3-13.62,2.98-2.16,9.16-5.99,11.2-5.08,2.95,1.31,6.08,20.42,1.83,29.98h0c-1.37,3.07-3.61,5.57-6.4,7.18Zm-1.13-33.5c-5.29,3.04-13.18,9.13-16.14,15.79-1.42,3.2-1.61,6.72-.52,9.91,1.08,3.17,3.29,5.63,6.22,6.93,2.93,1.3,6.24,1.3,9.31-.02,3.1-1.32,5.59-3.82,7.01-7.02h0c3.93-8.83.77-26.33-.95-27.61-.6-.13-2.49.62-4.93,2.02Z"/>
    </g>
    <g>
      <path class="cls-4" d="m61.9,50.23c-1.4,7.91-8.27,13.3-15.33,12.05s-11.65-8.68-10.25-16.59c2-11.26,15.08-24.52,17.47-24.1s9.98,18.11,8.12,28.63Z"/>
      <path class="cls-2" d="m55.16,61.58c-2.7,1.55-5.75,2.11-8.75,1.58-7.54-1.34-12.47-9.25-10.99-17.64,1.98-11.18,15.04-25.45,18.52-24.83,2.71.48,6.2,10.69,6.35,11.13,1.14,3.37,3.67,11.92,2.5,18.56-.72,4.04-2.8,7.6-5.87,10.01-.57.44-1.15.84-1.76,1.19Zm-2.28-38.85c-3.27,1.88-13.91,13.16-15.68,23.11-1.31,7.4,2.96,14.37,9.52,15.54,3.16.56,6.38-.29,9.07-2.41,2.72-2.14,4.57-5.3,5.21-8.91,1.8-10.17-5.41-26.71-7.43-27.6-.16,0-.4.1-.69.27Z"/>
    </g>
    <g>
      <path class="cls-4" d="m87.13,66.47c-4.37,6.74-12.8,9.03-18.81,5.12-6.02-3.91-7.35-12.54-2.98-19.27,6.23-9.59,23.44-16.7,25.48-15.38s2.13,20.56-3.69,29.53Z"/>
      <path class="cls-2" d="m82.17,72.27c-4.55,2.61-10.06,2.8-14.4-.02-3.13-2.03-5.18-5.3-5.79-9.2-.6-3.86.31-7.88,2.54-11.33,6.18-9.52,23.77-17.57,26.73-15.65,2.31,1.5,1.55,12.27,1.51,12.72-.26,3.55-1.26,12.41-4.93,18.06-1.51,2.32-3.48,4.14-5.67,5.4Zm-3.96-30.02c-4.64,2.66-9.45,6.29-12.16,10.46-1.99,3.07-2.8,6.65-2.27,10.07.52,3.38,2.29,6.21,4.98,7.95,5.59,3.63,13.47,1.45,17.56-4.85h0c5.63-8.66,5.43-26.71,3.92-28.31-1.01-.37-6.39,1.44-12.03,4.68Z"/>
    </g>
    <path class="cls-4" d="m69.97,61.36c-2.37,6.19-8.78,9.49-14.31,7.37s-8.09-8.86-5.72-15.05c3.38-8.82,16.06-17.53,17.93-16.81,1.87.72,5.26,16.24,2.1,24.49Z"/>
    <path class="cls-2" d="m64.93,68.69c-.17.1-.34.19-.51.28-2.94,1.51-6.16,1.73-9.08.61-2.92-1.12-5.17-3.43-6.35-6.52-1.16-3.05-1.12-6.5.11-9.7,2.05-5.35,7.02-10.04,9.8-12.35.29-.24,7.05-5.84,9.3-4.98,2.17.83,3.38,9.19,3.51,10.14.4,2.92,1.12,10.28-.89,15.51h0c-1.15,3.01-3.23,5.48-5.89,7.01Zm.37-30c-4.1,2.36-12,8.75-14.52,15.32-1.07,2.79-1.11,5.77-.1,8.41.99,2.6,2.87,4.54,5.3,5.48,2.43.93,5.13.74,7.6-.53,2.5-1.29,4.47-3.54,5.54-6.32h0c3.02-7.89-.22-21.87-1.6-23.3-.4.02-1.2.36-2.23.95Z"/>
  </g>
  <path class="cls-3" d="m91.52,95.26c-2.53,1.67-5.05,3.12-7.54,4.38-5.36,2.72-12.57,6.66-27.05,7.11-.03,0-.04,0-.06,0-9.41.34-17.47-1.44-23.33-3.38-4.01-1.33-6.97-2.73-8.61-3.59l4.24-7.36,4.66-8.11,24.02-.09,29.43,1.75,1.57.09,2.66,9.2Z"/>
  <path class="cls-5" d="m33.54,103.37c-4.01-1.33-6.97-2.73-8.61-3.59-.94-.49-1.44-.79-1.44-.79l-5.76,1.59-1.45.5c-2.72-.9-4.31-1.56-4.47-1.62h0s-3.95-9.93-3.95-9.93l17.4-6.94,3.92,9.83,4.37,10.95Z"/>
  <path class="cls-5" d="m106.65,85.63l-1.55,6.43-.22-.55s-2.21,1.3-5.99,3.15l-5.67-.54c-.56.39-1.12.78-1.69,1.14-2.53,1.67-5.05,3.12-7.54,4.38l3.31-13.67,1.15-4.75,18.21,4.41Z"/>
  <g>
    <g>
      <path class="cls-5" d="m92.88,43.83c-5.68-16.71-21.84-26.49-38.77-26.11-.26,0-1.59.08-1.85.11-16.86,1.66-33.75,13.44-37.37,30.71-1.63,7.74-5.05,21.77-.12,33.47,5.29,12.56,23.6,16.85,42.09,15.67h0s.09,0,.14,0c.05,0,.09,0,.14,0h0c18.49-1.06,36.16-7.52,39.9-20.62,3.49-12.2-1.6-25.72-4.15-33.21Z"/>
      <g>
        <ellipse class="cls-4" cx="36.04" cy="62.65" rx="4.51" ry="6.01" transform="translate(-3.71 2.29) rotate(-3.46)"/>
        <ellipse class="cls-4" cx="73.58" cy="60.38" rx="4.51" ry="6.01" transform="translate(-3.51 4.55) rotate(-3.46)"/>
      </g>
      <g>
        <path class="cls-10" d="m43.86,69.39s3.61,6.12,11.76,5.63c8.63-.52,11-7,11-7"/>
        <path class="cls-9" d="m55.65,75.87c-8.57.51-12.37-5.78-12.53-6.05-.24-.41-.1-.93.3-1.17.41-.24.93-.1,1.17.3.14.24,3.47,5.65,10.96,5.21h.02c7.98-.48,10.23-6.38,10.25-6.44.16-.44.65-.67,1.1-.51.44.16.67.65.51,1.1-.1.29-2.67,7.01-11.75,7.56h-.02Z"/>
      </g>
      <g>
        <ellipse class="cls-6" cx="32.84" cy="73.48" rx="5.13" ry="3.08" transform="translate(-4.37 2.11) rotate(-3.46)"/>
        <ellipse class="cls-6" cx="78.05" cy="70.75" rx="5.13" ry="3.08" transform="translate(-4.12 4.84) rotate(-3.46)"/>
      </g>
    </g>
    <g>
      <g>
        <path class="cls-1" d="m96.04,49.75c-.43-1.29-3.71-1.97-3.71-1.97,0,0-3.41-4.18-8.98-3.66-5.58.51-12.68.5-24.93,6.59-1.29.48-2.9.72-4.04.84-1.14.02-2.77-.02-4.11-.35-12.9-4.57-19.94-3.7-25.54-3.54-5.6.16-8.48,4.72-8.48,4.72,0,0-3.18,1.07-3.45,2.4-.27,1.33,3.39,2.51,3.39,2.51,0,0,2.85,6.58,5.52,10.1,2.67,3.52,5.37,1.78,5.37,1.78,0,0,4.2,1.32,12.87,1.33,8.68,0,10.28-6.76,11.32-9.89.63-1.89,2.27-2.57,3.48-2.82,1.23.1,2.94.58,3.79,2.38,1.41,2.98,3.82,9.5,12.43,8.45,8.61-1.05,12.62-2.87,12.62-2.87,0,0,2.89,1.4,5.11-2.41,2.22-3.81,4.26-10.69,4.26-10.69,0,0,3.5-1.61,3.07-2.9Z"/>
        <path class="cls-7" d="m48.76,57.58c.02,2.32-.4,4.65-1.4,6.74-.94,1.95-2.47,3.94-4.78,4.08-2.19.13-5.74.21-9.43-.31l-1.69-.28h0c-.73-.14-1.44-.3-2.16-.5l-2.77-.95c-3.09-1.31-5.45-3.9-6.65-7.04-1.22-3.22-1.36-5.92-.35-6.88,1.41-1.34,2.99-3.38,12.81-3.01.14,0,.27,0,.42.02,1.21.06,2.35.12,3.41.21.66.05,1.28.11,1.89.18h0c.82.09,1.59.19,2.3.29,5.01.74,7.49,1.94,7.88,3.21.35,1.17.51,2.62.52,4.24Z"/>
        <path class="cls-7" d="m89.57,55.12c-.83,3.32-2.92,6.23-5.91,7.89-2.49,1.39-5.39,2.3-8.1,2.86-.71.16-1.4.29-2.07.4-.85.14-1.66.25-2.41.33-1.13.14-2.13.21-2.95.26-.11,0-.23,0-.34,0-2.14-.04-3.78-1.75-4.9-3.48-1.26-1.95-1.94-4.22-2.2-6.52-.18-1.62-.2-3.07,0-4.28.33-1.81,4.64-3.96,14.23-5.6.22-.04.45-.08.68-.12,1.25-.2,2.37-.36,3.38-.46.69-.08,1.32-.12,1.91-.16.91-.05,1.69-.05,2.39-.02,3.6.15,4.77,1.24,5.81,2.01,1.12.83,1.32,3.53.49,6.87Z"/>
        <path class="cls-3" d="m36.16,49.66l-6.87,17.65-2.77-.95,5.81-16.93c.14,0,.27,0,.42.02,1.21.06,2.35.12,3.41.21Z"/>
        <path class="cls-3" d="m40.36,50.13l-7.22,17.97-1.69-.28h0s-.08-.04-.08-.04l6.68-17.94h0c.82.09,1.59.19,2.3.29Z"/>
        <path class="cls-3" d="m71.07,66.6l7.9-20.19c-1.01.1-2.13.26-3.38.46-.23.04-.46.08-.68.12l-7.13,19.88,3.29-.27Z"/>
        <path class="cls-3" d="m83.27,46.23l-7.71,19.63c-.71.16-1.4.29-2.07.4l7.39-20.01c.91-.05,1.69-.05,2.39-.02Z"/>
      </g>
      <ellipse class="cls-8" cx="15.34" cy="54.65" rx="1.3" ry=".57" transform="translate(-3.27 1.02) rotate(-3.46)"/>
      <ellipse class="cls-8" cx="93.43" cy="49.94" rx="1.3" ry=".57" transform="translate(-2.84 5.72) rotate(-3.46)"/>
    </g>
  </g>
  <g>
    <path class="cls-5" d="m.89,76.39c1.39-1.71,3.9-1.97,5.61-.58l4.21,3.42-1.5-5.44c-.59-2.12.66-4.32,2.78-4.91,2.12-.59,4.32.66,4.91,2.78l1.91,6.9c3.92-.57,7.59.55,9.64,3.37,3.32,4.56,1.13,11.81-4.89,16.18-6.02,4.38-13.58,4.22-16.9-.34-2.26-3.1-1.96-7.45.35-11.28l-5.54-4.51c-1.71-1.39-1.97-3.9-.58-5.61Z"/>
    <path class="cls-9" d="m28.43,94.16c-.13,0-.26-.03-.38-.1-.4-.21-.56-.71-.34-1.11,1.86-3.52,1.86-7.14,0-9.7-1.79-2.45-5.1-3.59-8.86-3.04-.4.06-.8-.19-.91-.6l-1.91-6.9c-.34-1.23-1.38-2.13-2.64-2.3-.45-.06-.77-.47-.71-.92.06-.45.47-.77.92-.71,1.92.25,3.5,1.62,4.01,3.49l1.72,6.22c4.09-.4,7.67,1,9.71,3.79,2.24,3.08,2.28,7.35.12,11.44-.15.28-.44.44-.73.44Z"/>
    <path class="cls-9" d="m22.64,92.37c-1.02,0-4.52-.26-5.94-3.57-.61-1.46-.61-2.73,0-3.8,1.17-2.08,4.26-2.55,5.27-2.7.1-.02.17-.03.21-.03.44-.09.88.17.99.61.11.43-.14.87-.57.99-.06.02-.19.04-.39.07-.82.12-3.31.5-4.08,1.88-.34.61-.32,1.38.09,2.35,1.17,2.73,4.46,2.57,4.6,2.56.45-.02.84.32.87.77.03.45-.32.84-.77.87-.03,0-.12,0-.28,0Z"/>
  </g>
  <g>
    <path class="cls-5" d="m109.9,67c-1.74-1.35-4.25-1.03-5.6.71l-3.33,4.29.23-5.64c.09-2.2-1.62-4.06-3.82-4.15-2.2-.09-4.06,1.62-4.15,3.82l-.3,7.16c-3.95.33-7.27,2.26-8.63,5.46-2.2,5.19,1.57,11.76,8.42,14.66,6.85,2.9,14.19,1.05,16.39-4.15,1.5-3.53.23-7.7-2.89-10.91l4.38-5.64c1.35-1.74,1.03-4.25-.71-5.6Z"/>
    <path class="cls-9" d="m87.28,90.45c-.29.07-.6-.02-.81-.26-3.03-3.49-3.95-7.67-2.47-11.17,1.35-3.18,4.54-5.35,8.6-5.89l.27-6.45c.08-1.94,1.3-3.63,3.12-4.31.43-.16.9.06,1.06.48.16.43-.06.9-.48,1.06-1.19.45-2,1.56-2.05,2.83l-.3,7.16c-.02.42-.35.75-.76.79-3.79.32-6.76,2.17-7.94,4.96-1.23,2.91-.41,6.44,2.19,9.45.3.34.26.86-.08,1.16-.1.09-.23.15-.35.18Z"/>
    <path class="cls-9" d="m92.32,87.49c-.14.03-.23.05-.26.05-.45.07-.87-.23-.95-.68-.07-.45.24-.88.68-.95.14-.02,3.37-.61,3.9-3.54.17-1.03.03-1.79-.45-2.3-1.07-1.17-3.58-.97-4.4-.91-.19.02-.33.02-.39.02-.46-.02-.81-.4-.79-.86.02-.45.39-.8.84-.79.04,0,.12,0,.21-.02,1.02-.08,4.14-.32,5.75,1.44.83.9,1.11,2.15.86,3.7-.64,3.57-4.02,4.61-5,4.83Z"/>
  </g>
</svg>
