<?xml version="1.0" encoding="UTF-8"?>
<svg id="Camada_1" data-name="Camada 1" xmlns="http://www.w3.org/2000/svg" viewBox="0 0 343.48 149.96">
  <defs>
    <style>
      .cls-1 {
        fill: #1d1f23;
      }

      .cls-1, .cls-2, .cls-3 {
        stroke-width: 0px;
      }

      .cls-2 {
        fill: #ad4437;
      }

      .cls-3 {
        fill: #bd695e;
      }
    </style>
  </defs>
  <g>
    <path class="cls-3" d="m94.79,82.74h10.47v8.36h-34.17v-8.36h10.47c-2.81-4.9-6.54-9.53-10.94-13.09.3-1.92.76-3.81,1.36-5.66.33-1,.69-1.99,1.11-2.95,1.38.97,2.72,2.01,4.01,3.11.21.19.43.37.64.56.43.38.85.77,1.26,1.16.37.34.72.69,1.08,1.04,1.07,1.06,2.09,2.16,3.05,3.31.72.83,1.4,1.69,2.05,2.56,1.07,1.44,2.08,2.93,3,4.48.6-1,1.23-1.97,1.91-2.92.36-.53.74-1.05,1.11-1.56.6-.8,1.22-1.58,1.86-2.34,1.2-1.43,2.48-2.8,3.81-4.1.68-.65,1.36-1.28,2.06-1.89.71-.62,1.43-1.21,2.16-1.79.5-.4,1.02-.78,1.53-1.16.22-.16.43-.31.66-.47.01-.01.03-.03.06-.04.42.97.79,1.95,1.12,2.96.6,1.83,1.05,3.72,1.36,5.63-4.44,3.58-8.21,8.22-11.03,13.16Z"/>
    <path class="cls-2" d="m141.39,56.33c-.04-.43-.1-.87-.17-1.35l-.47-3.38-3.41-.22c-.27-.01-.54-.03-.83-.04-.15-.01-.29-.02-.44-.02-.15,0-.3,0-.45-.01-.55-.01-1.06-.02-1.55-.02-2.87,0-5.73.23-8.55.68-.63.1-1.25.22-1.87.33-.01,0-.03,0-.04,0-.91.19-1.82.39-2.73.62-.31.08-.61.16-.92.24-.31.08-.61.17-.91.26-.33.1-.67.19-1.01.31-1.73.54-3.42,1.17-5.08,1.88-.35.15-.7.31-1.06.47-.45.2-.89.41-1.33.63-1.48.72-2.93,1.52-4.34,2.38h0c-.27.16-.54.33-.81.5-.72.45-1.41.92-2.1,1.41.42.97.79,1.96,1.12,2.96.6,1.84,1.05,3.72,1.36,5.64,1.52-1.23,3.12-2.36,4.79-3.37.9-.55,1.82-1.06,2.74-1.54,6.14-3.18,12.96-4.9,19.94-5.02v.03c.01.27.02.54.03.81,0,.15.01.31.02.46,0,.42.01.84.01,1.27,0,18.49-11.06,34.93-28.2,41.89-.28.11-.56.22-.85.33-.06.03-.13.05-.19.08-.08.03-.17.06-.25.09-.13.05-.27.1-.41.15-.15.05-.29.1-.44.15-.15.05-.29.1-.42.15-.11.03-.23.07-.35.11-.17.06-.35.12-.52.17-.08.02-.16.04-.24.07-.03,0-.07.02-.1.03-.18.06-.35.11-.54.17-.06.01-.12.03-.18.05-.24.06-.47.13-.7.19-.04.01-.08.02-.13.03-.25.06-.5.13-.75.19,0,0-.02,0-.03,0-2.06.51-4.16.87-6.29,1.09h-.02c-.29.03-.59.06-.88.08-.06,0-.12,0-.18,0-.24.02-.48.04-.72.06l-2,.08c-.49.01-.97,0-1.51,0-.68,0-1.35-.03-2.02-.08-3.56-.22-7.06-.84-10.45-1.87-.87-.27-1.73-.56-2.6-.88-.4-.15-.79-.3-1.19-.46-17.13-6.96-28.2-23.4-28.2-41.89,0-.86.03-1.72.08-2.57,7.01.13,13.86,1.86,20.02,5.07.93.48,1.84,1,2.73,1.54,1.67,1.02,3.27,2.16,4.79,3.4.31-1.92.76-3.81,1.36-5.66.33-1,.69-1.99,1.11-2.96,0,0-.02-.01-.03-.03-.46-.32-.93-.64-1.4-.95h0c-.47-.31-.93-.61-1.41-.9-.02-.01-.04-.03-.06-.03-1.41-.86-2.86-1.66-4.34-2.39-.45-.22-.89-.43-1.34-.63-.48-.22-.97-.43-1.45-.64-.4-.17-.8-.33-1.2-.49-.55-.22-1.1-.42-1.65-.62-.36-.13-.72-.25-1.09-.37-.18-.06-.36-.12-.54-.17-.44-.15-.88-.28-1.32-.4-.38-.12-.77-.22-1.15-.33-.13-.03-.24-.06-.35-.09-.44-.12-.88-.22-1.32-.33-.01,0-.02,0-.03,0-.49-.12-.99-.22-1.49-.32-.06-.01-.11-.03-.17-.03-.42-.08-.84-.16-1.25-.24-.58-.1-1.15-.19-1.73-.27-.44-.06-.88-.12-1.32-.17-.02,0-.04,0-.06,0-.51-.06-1.01-.11-1.52-.15-.06,0-.11,0-.17-.01-.45-.03-.9-.07-1.36-.09-.5-.03-1-.06-1.5-.07h-.1c-.48-.01-.95-.02-1.43-.02h-.03c-.38,0-.76,0-1.14.01-.13,0-.27,0-.41,0-.43.01-.86.03-1.29.06-.08,0-.16,0-.24.01l-.38.02-3.21.2-.47,3.38c-.07.48-.12.92-.16,1.33-.22,1.95-.33,3.94-.33,5.92,0,10.86,3.24,21.33,9.36,30.26,5.98,8.71,14.29,15.41,24.05,19.37,5.38,2.19,11.06,3.47,16.87,3.81.79.05,1.6.08,2.39.09.29,0,.58,0,.88,0,.33,0,.65,0,.98,0,.74-.01,1.5-.04,2.27-.09,1.45-.08,2.9-.23,4.34-.44,4.3-.61,8.51-1.74,12.54-3.38,7.63-3.1,14.37-7.86,19.8-13.95,1.52-1.7,2.94-3.52,4.24-5.42,6.12-8.93,9.36-19.39,9.36-30.26,0-1.97-.1-3.96-.32-5.89Zm-65.61-.46c3.13-5,7.4-9.18,12.44-12.19,5.03,3.01,9.3,7.17,12.42,12.16.14.22.29.45.42.68,2.32-1.54,4.77-2.89,7.31-4.05-.21-.36-.42-.72-.65-1.08-4.31-6.86-10.39-12.47-17.58-16.2l-1.93-1-1.92,1c-7.21,3.74-13.3,9.35-17.61,16.25-.22.35-.44.71-.64,1.06,2.54,1.16,4.98,2.51,7.31,4.05.13-.23.28-.45.42-.68Z"/>
  </g>
  <g>
    <rect class="cls-1" x="215.13" y="71.24" width="9.27" height="43.17"/>
    <path class="cls-1" d="m219.73,52.17c-1.5,0-2.76.51-3.78,1.53-1.02,1.02-1.53,2.28-1.53,3.78s.51,2.76,1.53,3.78c1.02,1.02,2.28,1.53,3.78,1.53s2.86-.51,3.91-1.53c1.04-1.02,1.57-2.28,1.57-3.78s-.53-2.76-1.57-3.78c-1.05-1.02-2.35-1.53-3.91-1.53Z"/>
    <path class="cls-1" d="m250.72,106.78c-1.11-1.2-1.67-3.24-1.67-6.12v-22.4h10.62v-7.01h-10.62v-12.96h-9.17v12.96h-6.57v7.01h6.57v23.03c0,4.62,1.18,8.18,3.56,10.7,2.37,2.52,5.74,3.78,10.12,3.78,3.35,0,6.17-.39,8.45-1.17v-7.2c-1.74.78-3.48,1.17-5.22,1.17-2.94,0-4.96-.6-6.07-1.8Z"/>
    <path class="cls-1" d="m303.96,74.62c-3.45-3.15-8.74-4.73-15.88-4.73-2.69,0-5.48.26-8.36.77-2.87.51-5.21,1.18-7.01,2.02v7.38c1.98-.9,4.21-1.61,6.7-2.12s5.05-.77,7.69-.77c4.44,0,7.69.82,9.76,2.47,2.07,1.66,3.1,4.18,3.1,7.61v2.25c-4.14-2.4-9.18-3.6-15.11-3.6-5.57,0-9.88,1.3-12.91,3.91s-4.54,6.31-4.54,11.11,1.58,8.18,4.73,10.84c3.15,2.67,7.33,4,12.55,4,3.66,0,6.76-.52,9.31-1.57,2.55-1.05,4.75-2.6,6.61-4.63v4.86h8.55v-26.72c0-5.57-1.73-9.94-5.17-13.08Zm-4,27.75c-1.14,2.04-2.88,3.63-5.22,4.77-2.34,1.14-4.95,1.71-7.83,1.71-6.9,0-10.34-2.64-10.34-7.92,0-2.76.86-4.81,2.56-6.16,1.71-1.35,4.31-2.02,7.78-2.02,4.8,0,9.15,1.26,13.05,3.78v5.85Z"/>
    <path class="cls-1" d="m207.95,51.54h-11.24c-4.38,5.64-9.48,10.74-15.2,15.17-4.61,3.58-9.64,6.72-15.01,9.34,0,0,0,0,0,0v-24.48h-9.12v62.84h9.12v-24.47s0,0,0,0c12.02,5.86,22.25,14.3,30.17,24.47h11.25s0,0,0,0c-.57-.86-1.16-1.71-1.76-2.55-5.13-7.17-11.27-13.63-18.26-19.17-4.62-3.65-9.61-6.91-14.94-9.7,3.68-1.93,7.2-4.08,10.55-6.43,9.71-6.82,17.97-15.33,24.45-25.02Z"/>
  </g>
</svg>