<?xml version="1.0" encoding="UTF-8"?>
<svg id="Camada_1" data-name="Camada 1" xmlns="http://www.w3.org/2000/svg" viewBox="0 0 198.44 207.38">
  <defs>
    <style>
      .cls-1 {
        fill: #1d1f23;
      }

      .cls-1, .cls-2, .cls-3 {
        stroke-width: 0px;
      }

      .cls-2 {
        fill: #ad4437;
      }

      .cls-3 {
        fill: #bd695e;
      }
    </style>
  </defs>
  <g>
    <rect class="cls-1" x="83.01" y="137.56" width="8.39" height="39.1"/>
    <path class="cls-1" d="m87.17,120.29c-1.36,0-2.5.46-3.42,1.38-.92.92-1.38,2.06-1.38,3.42s.46,2.5,1.38,3.42c.92.92,2.06,1.38,3.42,1.38s2.59-.46,3.54-1.38c.95-.92,1.43-2.06,1.43-3.42s-.48-2.5-1.43-3.42c-.95-.92-2.13-1.38-3.54-1.38Z"/>
    <path class="cls-1" d="m115.23,169.73c-1.01-1.09-1.51-2.93-1.51-5.54v-20.28h9.61v-6.35h-9.61v-11.73h-8.31v11.73h-5.95v6.35h5.95v20.85c0,4.18,1.07,7.41,3.22,9.69,2.14,2.28,5.2,3.42,9.16,3.42,3.04,0,5.59-.35,7.66-1.06v-6.52c-1.58.71-3.15,1.06-4.72,1.06-2.66,0-4.49-.54-5.5-1.63Z"/>
    <path class="cls-1" d="m163.45,140.62c-3.12-2.85-7.91-4.28-14.38-4.28-2.44,0-4.97.23-7.57.69-2.61.46-4.72,1.07-6.35,1.83v6.68c1.79-.81,3.81-1.45,6.07-1.91,2.25-.46,4.57-.69,6.96-.69,4.02,0,6.96.75,8.84,2.24,1.87,1.49,2.81,3.79,2.81,6.88v2.04c-3.75-2.17-8.31-3.26-13.68-3.26-5.05,0-8.95,1.18-11.69,3.54-2.74,2.36-4.11,5.72-4.11,10.06s1.43,7.4,4.28,9.82c2.85,2.42,6.64,3.62,11.36,3.62,3.31,0,6.12-.48,8.43-1.42,2.31-.95,4.3-2.35,5.99-4.2v4.4h7.74v-24.19c0-5.05-1.56-9-4.68-11.85Zm-3.62,25.13c-1.03,1.85-2.61,3.29-4.72,4.32-2.12,1.03-4.48,1.55-7.09,1.55-6.25,0-9.37-2.39-9.37-7.17,0-2.5.77-4.36,2.32-5.58,1.55-1.22,3.9-1.83,7.05-1.83,4.34,0,8.28,1.14,11.81,3.42v5.29Z"/>
    <path class="cls-1" d="m76.5,119.72h-10.17c-7.18,9.22-16.46,16.87-27.36,22.19v-22.16h-8.25v56.9h8.25v-22.16c10.88,5.31,20.15,12.95,27.33,22.16h10.18c-7.88-11.79-18.67-21.65-31.66-28.45,13-6.81,23.81-16.68,31.68-28.48Z"/>
  </g>
  <g>
    <path class="cls-3" d="m105.47,74.68h9.47v7.57h-30.93v-7.57h9.47c-2.54-4.44-5.91-8.62-9.9-11.85.28-1.73.69-3.45,1.23-5.12.3-.91.63-1.8,1.01-2.68,1.25.89,2.46,1.83,3.63,2.83.19.16.39.33.57.5.4.34.77.69,1.15,1.05.33.31.65.62.97.94.97.96,1.9,1.96,2.77,3,.65.75,1.26,1.53,1.86,2.32.97,1.3,1.87,2.65,2.71,4.05.54-.9,1.12-1.78,1.73-2.65.33-.47.67-.94,1.01-1.4.54-.73,1.1-1.43,1.68-2.12,1.09-1.3,2.24-2.54,3.45-3.71.61-.59,1.23-1.16,1.87-1.72.63-.55,1.29-1.09,1.95-1.62.45-.36.92-.7,1.38-1.04.2-.15.4-.29.6-.43.01-.01.03-.03.05-.04.38.88.72,1.77,1.02,2.68.54,1.66.95,3.37,1.23,5.1-4.02,3.24-7.43,7.44-9.98,11.91Z"/>
    <path class="cls-2" d="m147.65,50.77c-.04-.39-.09-.79-.15-1.22l-.42-3.06-3.09-.2c-.25-.01-.49-.03-.75-.04-.13-.01-.26-.02-.4-.02-.13,0-.27,0-.41-.01-.5-.01-.96-.02-1.4-.02-2.6,0-5.19.21-7.74.62-.57.09-1.13.2-1.69.3-.01,0-.03,0-.04,0-.83.17-1.65.35-2.47.56-.28.07-.55.14-.83.22-.28.08-.55.15-.83.23-.3.09-.61.18-.91.28-1.56.49-3.1,1.06-4.6,1.7-.32.14-.64.28-.96.42-.4.18-.81.37-1.2.57-1.34.66-2.65,1.37-3.93,2.15h0c-.25.14-.49.3-.74.45-.65.41-1.28.83-1.9,1.27.38.88.71,1.77,1.01,2.68.54,1.66.95,3.37,1.23,5.1,1.38-1.12,2.82-2.14,4.33-3.05.81-.5,1.64-.96,2.48-1.4,5.56-2.88,11.74-4.44,18.05-4.55v.03c.01.25.02.49.03.74,0,.14.01.28.02.42,0,.38.01.76.01,1.15,0,16.74-10.02,31.62-25.53,37.92-.25.1-.51.2-.77.3-.06.03-.12.04-.18.07-.08.03-.15.05-.23.08-.12.04-.25.09-.37.14-.13.04-.26.09-.4.14-.13.04-.26.09-.38.13-.1.03-.21.06-.32.1-.16.05-.32.11-.47.16-.08.02-.14.04-.21.06-.03,0-.06.02-.09.03-.16.05-.32.1-.49.15-.06.01-.11.03-.16.04-.21.06-.42.12-.64.18-.04.01-.08.02-.12.03-.23.06-.45.12-.68.18,0,0-.02,0-.03,0-1.86.46-3.77.79-5.7.98h-.02c-.26.03-.54.05-.8.08-.06,0-.11,0-.16,0-.21.02-.43.04-.66.05l-1.81.07c-.45.01-.88,0-1.37,0-.61,0-1.22-.03-1.83-.07-3.23-.2-6.39-.76-9.46-1.69-.79-.25-1.57-.51-2.35-.8-.36-.13-.72-.27-1.08-.42-15.5-6.3-25.53-21.18-25.53-37.92,0-.77.03-1.56.07-2.33,6.34.11,12.54,1.69,18.13,4.59.84.43,1.66.9,2.48,1.39,1.51.93,2.96,1.96,4.34,3.07.28-1.74.69-3.45,1.23-5.12.3-.91.62-1.8,1-2.68,0,0-.02-.01-.03-.03-.42-.29-.84-.58-1.27-.86h0c-.42-.28-.84-.55-1.27-.81-.02-.01-.04-.03-.05-.03-1.28-.78-2.59-1.51-3.93-2.16-.4-.2-.81-.39-1.21-.57-.43-.2-.88-.39-1.32-.58-.36-.15-.72-.3-1.08-.44-.5-.2-1-.38-1.49-.56-.33-.11-.66-.23-.98-.33-.16-.06-.33-.11-.49-.16-.4-.13-.79-.25-1.2-.37-.35-.11-.69-.2-1.04-.3-.11-.03-.22-.06-.32-.08-.4-.11-.79-.2-1.2-.3-.01,0-.02,0-.03,0-.45-.11-.89-.2-1.35-.29-.05-.01-.1-.03-.15-.03-.38-.08-.76-.14-1.13-.21-.52-.09-1.04-.17-1.56-.25-.4-.06-.79-.11-1.19-.15-.02,0-.04,0-.06,0-.46-.06-.91-.1-1.37-.14-.05,0-.1,0-.15-.01-.41-.03-.82-.06-1.23-.08-.45-.03-.91-.05-1.36-.06h-.09c-.43-.01-.86-.02-1.3-.02h-.03c-.35,0-.69,0-1.03.01-.12,0-.25,0-.37,0-.39.01-.78.03-1.17.05-.07,0-.14,0-.21.01l-.35.02-2.9.18-.42,3.06c-.06.43-.11.83-.14,1.2-.2,1.76-.3,3.57-.3,5.36,0,9.83,2.93,19.31,8.47,27.39,5.41,7.89,12.94,13.96,21.77,17.54,4.87,1.98,10.01,3.14,15.27,3.45.72.04,1.45.08,2.16.08.26,0,.52,0,.79,0,.3,0,.59,0,.89,0,.67-.01,1.36-.04,2.05-.08,1.32-.08,2.63-.21,3.93-.4,3.89-.55,7.71-1.58,11.35-3.06,6.91-2.8,13.01-7.12,17.93-12.63,1.37-1.54,2.66-3.19,3.84-4.91,5.54-8.08,8.47-17.56,8.47-27.39,0-1.78-.09-3.58-.29-5.34Zm-59.4-.42c2.84-4.53,6.7-8.31,11.26-11.04,4.56,2.72,8.42,6.5,11.25,11.01.13.2.26.41.38.62,2.1-1.39,4.32-2.61,6.62-3.67-.19-.33-.38-.66-.59-.98-3.9-6.21-9.41-11.29-15.91-14.67l-1.75-.91-1.74.91c-6.53,3.38-12.04,8.47-15.94,14.71-.2.32-.4.64-.58.96,2.3,1.05,4.51,2.27,6.62,3.67.12-.21.25-.41.38-.62Z"/>
  </g>
</svg>