<?xml version="1.0" encoding="UTF-8"?>
<svg id="Camada_1" data-name="Camada 1" xmlns="http://www.w3.org/2000/svg" viewBox="0 0 196.89 167.37">
  <defs>
    <style>
      .cls-1 {
        fill: #ad4437;
      }

      .cls-1, .cls-2 {
        stroke-width: 0px;
      }

      .cls-2 {
        fill: #bd695e;
      }
    </style>
  </defs>
  <path class="cls-2" d="m105.86,91.95h11.73v9.37h-38.29v-9.37h11.73c-3.15-5.5-7.33-10.67-12.26-14.67.34-2.15.85-4.27,1.53-6.34.36-1.12.77-2.23,1.24-3.31,1.55,1.09,3.05,2.25,4.49,3.49.24.2.48.42.72.63.48.42.95.85,1.41,1.29.41.38.81.77,1.21,1.17,1.2,1.19,2.34,2.43,3.42,3.71.8.93,1.57,1.89,2.3,2.87,1.2,1.61,2.32,3.29,3.36,5.02.67-1.12,1.38-2.21,2.14-3.28.4-.58.83-1.17,1.25-1.74.67-.89,1.36-1.77,2.08-2.63,1.35-1.59,2.77-3.13,4.27-4.59.76-.72,1.52-1.43,2.31-2.12s1.6-1.36,2.42-2c.56-.45,1.14-.88,1.71-1.3.25-.18.49-.35.74-.53.01-.02.04-.03.07-.05.47,1.09.88,2.2,1.25,3.32.67,2.06,1.18,4.17,1.52,6.32-4.97,4-9.19,9.21-12.35,14.74Z"/>
  <path class="cls-1" d="m158.09,62.35c-.05-.48-.11-.97-.19-1.51l-.52-3.79-3.82-.24c-.3-.02-.61-.03-.93-.05-.16-.02-.33-.02-.49-.02-.16,0-.34,0-.51-.02-.62-.02-1.19-.02-1.73-.02-3.22,0-6.43.26-9.58.76-.7.12-1.4.24-2.1.37-.02,0-.03,0-.05,0-1.02.21-2.04.44-3.06.69-.34.09-.69.18-1.03.27-.34.09-.68.19-1.02.29-.37.11-.76.22-1.13.34-1.93.6-3.84,1.31-5.69,2.11-.4.17-.79.34-1.19.52-.5.23-1,.46-1.49.7-1.66.81-3.28,1.7-4.86,2.67h0c-.3.18-.61.37-.91.56-.8.51-1.58,1.03-2.36,1.58.47,1.08.88,2.19,1.26,3.31.67,2.06,1.18,4.17,1.52,6.32,1.71-1.38,3.49-2.64,5.37-3.77,1.01-.62,2.04-1.19,3.07-1.73,6.89-3.56,14.53-5.49,22.34-5.63v.04c.02.3.02.61.04.91,0,.17.02.34.02.51,0,.48.02.94.02,1.42,0,20.72-12.4,39.14-31.6,46.94-.31.12-.63.25-.95.37-.07.03-.15.05-.22.09-.09.03-.19.06-.28.1-.15.05-.3.12-.46.17-.16.05-.33.12-.49.17-.16.05-.32.11-.48.16-.12.04-.26.08-.39.12-.19.06-.39.13-.58.19-.09.02-.18.05-.27.08-.04,0-.08.02-.12.03-.2.06-.4.12-.6.19-.07.02-.13.03-.2.05-.27.07-.52.15-.79.22-.05.02-.09.02-.15.04-.28.07-.56.15-.84.22,0,0-.02,0-.03,0-2.31.57-4.66.97-7.05,1.22h-.02c-.33.03-.66.06-.99.09-.07,0-.13,0-.2,0-.27.02-.54.05-.81.06l-2.24.09c-.55.02-1.08,0-1.69,0-.76,0-1.51-.04-2.26-.09-3.99-.24-7.91-.94-11.71-2.1-.97-.3-1.94-.63-2.91-.99-.44-.16-.89-.34-1.33-.51-19.19-7.8-31.6-26.22-31.6-46.94,0-.96.03-1.93.09-2.89,7.85.14,15.53,2.09,22.44,5.69,1.04.54,2.06,1.12,3.07,1.72,1.87,1.15,3.67,2.43,5.37,3.81.34-2.15.85-4.27,1.53-6.34.37-1.12.77-2.23,1.24-3.31,0,0-.02-.02-.04-.03-.51-.36-1.04-.72-1.57-1.06h0c-.52-.35-1.04-.69-1.58-1.01-.02-.02-.05-.03-.06-.04-1.58-.97-3.21-1.86-4.87-2.67-.5-.24-1-.48-1.5-.71-.54-.25-1.08-.48-1.63-.72-.44-.19-.9-.37-1.34-.55-.62-.24-1.23-.47-1.85-.69-.41-.14-.81-.28-1.22-.41-.2-.07-.41-.13-.61-.19-.49-.16-.98-.31-1.48-.45-.43-.13-.86-.25-1.29-.37-.14-.03-.27-.07-.4-.1-.49-.13-.98-.25-1.48-.37-.02,0-.02,0-.04,0-.55-.13-1.11-.25-1.67-.36-.06-.02-.12-.03-.19-.04-.47-.09-.94-.18-1.4-.27-.65-.11-1.29-.21-1.93-.3-.49-.07-.98-.13-1.47-.19-.02,0-.05,0-.07,0-.57-.07-1.13-.12-1.7-.17-.06,0-.12,0-.19-.02-.51-.04-1.01-.08-1.53-.1-.56-.04-1.12-.06-1.68-.08h-.12c-.54-.02-1.07-.02-1.61-.02h-.04c-.43,0-.85,0-1.28.02-.15,0-.3,0-.46,0-.48.02-.97.04-1.45.06-.09,0-.18,0-.27.02l-.43.02-3.6.23-.52,3.79c-.08.54-.13,1.03-.18,1.49-.24,2.18-.37,4.41-.37,6.63,0,12.17,3.63,23.9,10.49,33.91,6.7,9.76,16.02,17.27,26.95,21.71,6.03,2.45,12.39,3.88,18.9,4.27.89.05,1.79.09,2.67.1.33,0,.65,0,.98,0,.37,0,.73,0,1.1,0,.83-.02,1.68-.05,2.54-.1,1.63-.09,3.25-.26,4.86-.49,4.82-.68,9.54-1.95,14.05-3.78,8.55-3.47,16.1-8.81,22.2-15.64,1.7-1.91,3.3-3.95,4.76-6.08,6.86-10.01,10.49-21.74,10.49-33.91,0-2.21-.12-4.44-.36-6.61Zm-73.53-.51c3.51-5.61,8.3-10.29,13.94-13.66,5.64,3.37,10.42,8.04,13.92,13.62.16.25.32.51.47.76,2.6-1.72,5.35-3.24,8.2-4.54-.23-.41-.48-.81-.73-1.21-4.83-7.69-11.64-13.98-19.7-18.16l-2.16-1.12-2.15,1.12c-8.08,4.19-14.9,10.48-19.73,18.21-.25.4-.49.8-.72,1.19,2.85,1.3,5.58,2.82,8.19,4.54.15-.26.31-.51.47-.76Z"/>
</svg>